<?xml version="1.0" encoding="UTF-8" standalone="no"?>
<!DOCTYPE svg PUBLIC "-//W3C//DTD SVG 1.1//EN"
 "http://www.w3.org/Graphics/SVG/1.1/DTD/svg11.dtd">
<!-- Generated by graphviz version 2.40.1 (20161225.0304)
 -->
<!-- Title: packages Pages: 1 -->
<svg width="1356pt" height="332pt"
 viewBox="0.00 0.00 1355.98 332.00" xmlns="http://www.w3.org/2000/svg" xmlns:xlink="http://www.w3.org/1999/xlink">
<g id="graph0" class="graph" transform="scale(1 1) rotate(0) translate(4 328)">
<title>packages</title>
<polygon fill="#ffffff" stroke="transparent" points="-4,4 -4,-328 1351.9815,-328 1351.9815,4 -4,4"/>
<!-- 0 -->
<g id="node1" class="node">
<title>0</title>
<polygon fill="none" stroke="#000000" points="843.9815,-36 789.9815,-36 789.9815,0 843.9815,0 843.9815,-36"/>
<text text-anchor="middle" x="816.9815" y="-14.3" font-family="Inconsolata, DejaVu Sans Mono, monospace" font-size="14.00" fill="#000000">m01</text>
</g>
<!-- 1 -->
<g id="node2" class="node">
<title>1</title>
<polygon fill="none" stroke="#000000" points="234.9815,-324 180.9815,-324 180.9815,-288 234.9815,-288 234.9815,-324"/>
<text text-anchor="middle" x="207.9815" y="-302.3" font-family="Inconsolata, DejaVu Sans Mono, monospace" font-size="14.00" fill="#000000">m02</text>
</g>
<!-- 2 -->
<g id="node3" class="node">
<title>2</title>
<polygon fill="none" stroke="#000000" points="141.9815,-252 87.9815,-252 87.9815,-216 141.9815,-216 141.9815,-252"/>
<text text-anchor="middle" x="114.9815" y="-230.3" font-family="Inconsolata, DejaVu Sans Mono, monospace" font-size="14.00" fill="#000000">m03</text>
</g>
<!-- 2&#45;&gt;1 -->
<g id="edge1" class="edge">
<title>2&#45;&gt;1</title>
<path fill="none" stroke="#000000" d="M138.4494,-252.1686C150.0142,-261.1221 164.1219,-272.0442 176.5999,-281.7045"/>
<polygon fill="#000000" stroke="#000000" points="184.5212,-287.8372 173.8592,-285.2737 180.5676,-284.7763 176.614,-281.7154 176.614,-281.7154 176.614,-281.7154 180.5676,-284.7763 179.3688,-278.1571 184.5212,-287.8372 184.5212,-287.8372"/>
</g>
<!-- 3 -->
<g id="node4" class="node">
<title>3</title>
<polygon fill="none" stroke="#000000" points="137.9815,-180 83.9815,-180 83.9815,-144 137.9815,-144 137.9815,-180"/>
<text text-anchor="middle" x="110.9815" y="-158.3" font-family="Inconsolata, DejaVu Sans Mono, monospace" font-size="14.00" fill="#000000">m04</text>
</g>
<!-- 3&#45;&gt;2 -->
<g id="edge2" class="edge">
<title>3&#45;&gt;2</title>
<path fill="none" stroke="#000000" d="M111.9909,-180.1686C112.4187,-187.869 112.9274,-197.0257 113.4028,-205.5834"/>
<polygon fill="#000000" stroke="#000000" points="113.9586,-215.5867 108.9107,-205.8518 113.6812,-210.5944 113.4038,-205.6021 113.4038,-205.6021 113.4038,-205.6021 113.6812,-210.5944 117.8969,-205.3525 113.9586,-215.5867 113.9586,-215.5867"/>
</g>
<!-- 4 -->
<g id="node5" class="node">
<title>4</title>
<polygon fill="none" stroke="#000000" points="69.9815,-252 15.9815,-252 15.9815,-216 69.9815,-216 69.9815,-252"/>
<text text-anchor="middle" x="42.9815" y="-230.3" font-family="Inconsolata, DejaVu Sans Mono, monospace" font-size="14.00" fill="#000000">m05</text>
</g>
<!-- 4&#45;&gt;1 -->
<g id="edge3" class="edge">
<title>4&#45;&gt;1</title>
<path fill="none" stroke="#000000" d="M70.0141,-247.76C73.0258,-249.2202 76.0599,-250.6599 78.9815,-252 109.8016,-266.1364 145.3867,-280.92 171.3653,-291.4375"/>
<polygon fill="#000000" stroke="#000000" points="180.8216,-295.2493 169.8643,-295.6842 176.1841,-293.3799 171.5467,-291.5105 171.5467,-291.5105 171.5467,-291.5105 176.1841,-293.3799 173.2292,-287.3369 180.8216,-295.2493 180.8216,-295.2493"/>
</g>
<!-- 5 -->
<g id="node6" class="node">
<title>5</title>
<polygon fill="none" stroke="#000000" points="65.9815,-180 11.9815,-180 11.9815,-144 65.9815,-144 65.9815,-180"/>
<text text-anchor="middle" x="38.9815" y="-158.3" font-family="Inconsolata, DejaVu Sans Mono, monospace" font-size="14.00" fill="#000000">m06</text>
</g>
<!-- 5&#45;&gt;1 -->
<g id="edge4" class="edge">
<title>5&#45;&gt;1</title>
<path fill="none" stroke="#000000" d="M23.1416,-180.1542C8.2197,-199.5519 -9.5676,-230.4181 6.9815,-252 26.8214,-277.8735 118.5784,-294.1036 170.996,-301.4285"/>
<polygon fill="#000000" stroke="#000000" points="180.922,-302.775 170.4078,-305.8899 175.9674,-302.1029 171.0128,-301.4307 171.0128,-301.4307 171.0128,-301.4307 175.9674,-302.1029 171.6177,-296.9716 180.922,-302.775 180.922,-302.775"/>
</g>
<!-- 5&#45;&gt;2 -->
<g id="edge5" class="edge">
<title>5&#45;&gt;2</title>
<path fill="none" stroke="#000000" d="M58.1596,-180.1686C67.3404,-188.8663 78.4822,-199.4217 88.4591,-208.8735"/>
<polygon fill="#000000" stroke="#000000" points="95.8097,-215.8372 85.4552,-212.2265 92.1799,-212.3984 88.5501,-208.9597 88.5501,-208.9597 88.5501,-208.9597 92.1799,-212.3984 91.645,-205.6929 95.8097,-215.8372 95.8097,-215.8372"/>
</g>
<!-- 5&#45;&gt;4 -->
<g id="edge6" class="edge">
<title>5&#45;&gt;4</title>
<path fill="none" stroke="#000000" d="M39.9909,-180.1686C40.4187,-187.869 40.9274,-197.0257 41.4028,-205.5834"/>
<polygon fill="#000000" stroke="#000000" points="41.9586,-215.5867 36.9107,-205.8518 41.6812,-210.5944 41.4038,-205.6021 41.4038,-205.6021 41.4038,-205.6021 41.6812,-210.5944 45.8969,-205.3525 41.9586,-215.5867 41.9586,-215.5867"/>
</g>
<!-- 6 -->
<g id="node7" class="node">
<title>6</title>
<polygon fill="none" stroke="#000000" points="987.9815,-36 933.9815,-36 933.9815,0 987.9815,0 987.9815,-36"/>
<text text-anchor="middle" x="960.9815" y="-14.3" font-family="Inconsolata, DejaVu Sans Mono, monospace" font-size="14.00" fill="#000000">m07</text>
</g>
<!-- 7 -->
<g id="node8" class="node">
<title>7</title>
<polygon fill="none" stroke="#000000" points="839.9815,-252 785.9815,-252 785.9815,-216 839.9815,-216 839.9815,-252"/>
<text text-anchor="middle" x="812.9815" y="-230.3" font-family="Inconsolata, DejaVu Sans Mono, monospace" font-size="14.00" fill="#000000">m08</text>
</g>
<!-- 8 -->
<g id="node9" class="node">
<title>8</title>
<polygon fill="none" stroke="#000000" points="585.9815,-324 531.9815,-324 531.9815,-288 585.9815,-288 585.9815,-324"/>
<text text-anchor="middle" x="558.9815" y="-302.3" font-family="Inconsolata, DejaVu Sans Mono, monospace" font-size="14.00" fill="#000000">m09</text>
</g>
<!-- 9 -->
<g id="node10" class="node">
<title>9</title>
<polygon fill="none" stroke="#000000" points="585.9815,-252 531.9815,-252 531.9815,-216 585.9815,-216 585.9815,-252"/>
<text text-anchor="middle" x="558.9815" y="-230.3" font-family="Inconsolata, DejaVu Sans Mono, monospace" font-size="14.00" fill="#000000">m10</text>
</g>
<!-- 9&#45;&gt;1 -->
<g id="edge7" class="edge">
<title>9&#45;&gt;1</title>
<path fill="none" stroke="#000000" d="M531.64,-240.9691C517.709,-244.439 500.4805,-248.6062 484.9815,-252 399.5038,-270.7173 298.4769,-289.6003 245.1971,-299.3083"/>
<polygon fill="#000000" stroke="#000000" points="235.1966,-301.1248 244.2313,-294.91 240.1161,-300.2312 245.0356,-299.3375 245.0356,-299.3375 245.0356,-299.3375 240.1161,-300.2312 245.8398,-303.7651 235.1966,-301.1248 235.1966,-301.1248"/>
</g>
<!-- 9&#45;&gt;8 -->
<g id="edge8" class="edge">
<title>9&#45;&gt;8</title>
<path fill="none" stroke="#000000" d="M558.9815,-252.1686C558.9815,-259.869 558.9815,-269.0257 558.9815,-277.5834"/>
<polygon fill="#000000" stroke="#000000" points="558.9815,-287.5867 554.4816,-277.5867 558.9816,-282.5867 558.9816,-277.5867 558.9816,-277.5867 558.9816,-277.5867 558.9816,-282.5867 563.4816,-277.5868 558.9815,-287.5867 558.9815,-287.5867"/>
</g>
<!-- 10 -->
<g id="node11" class="node">
<title>10</title>
<polygon fill="none" stroke="#000000" points="860.9815,-180 806.9815,-180 806.9815,-144 860.9815,-144 860.9815,-180"/>
<text text-anchor="middle" x="833.9815" y="-158.3" font-family="Inconsolata, DejaVu Sans Mono, monospace" font-size="14.00" fill="#000000">m11</text>
</g>
<!-- 10&#45;&gt;7 -->
<g id="edge9" class="edge">
<title>10&#45;&gt;7</title>
<path fill="none" stroke="#000000" d="M828.6824,-180.1686C826.4117,-187.9537 823.707,-197.2271 821.1875,-205.8653"/>
<polygon fill="#000000" stroke="#000000" points="818.3521,-215.5867 816.8321,-204.7267 819.7521,-210.7867 821.1521,-205.9867 821.1521,-205.9867 821.1521,-205.9867 819.7521,-210.7867 825.4722,-207.2468 818.3521,-215.5867 818.3521,-215.5867"/>
</g>
<!-- 10&#45;&gt;8 -->
<g id="edge10" class="edge">
<title>10&#45;&gt;8</title>
<path fill="none" stroke="#000000" d="M844.4712,-180.0508C854.491,-199.9376 865.7873,-231.776 848.9815,-252 817.3041,-290.1205 667.7372,-301.4663 596.665,-304.7331"/>
<polygon fill="#000000" stroke="#000000" points="586.3667,-305.1749 596.1646,-300.2503 591.3621,-304.9605 596.3575,-304.7462 596.3575,-304.7462 596.3575,-304.7462 591.3621,-304.9605 596.5504,-309.2421 586.3667,-305.1749 586.3667,-305.1749"/>
</g>
<!-- 10&#45;&gt;9 -->
<g id="edge11" class="edge">
<title>10&#45;&gt;9</title>
<path fill="none" stroke="#000000" d="M806.8327,-170.9575C797.4187,-173.9612 786.7712,-177.2447 776.9815,-180 759.6321,-184.8829 653.6226,-210.8819 596.0747,-224.9472"/>
<polygon fill="#000000" stroke="#000000" points="586.2627,-227.3445 594.9089,-220.5996 591.1199,-226.1578 595.977,-224.971 595.977,-224.971 595.977,-224.971 591.1199,-226.1578 597.0451,-229.3425 586.2627,-227.3445 586.2627,-227.3445"/>
</g>
<!-- 11 -->
<g id="node12" class="node">
<title>11</title>
<polygon fill="none" stroke="#000000" points="915.9815,-108 861.9815,-108 861.9815,-72 915.9815,-72 915.9815,-108"/>
<text text-anchor="middle" x="888.9815" y="-86.3" font-family="Inconsolata, DejaVu Sans Mono, monospace" font-size="14.00" fill="#000000">m12</text>
</g>
<!-- 11&#45;&gt;8 -->
<g id="edge12" class="edge">
<title>11&#45;&gt;8</title>
<path fill="none" stroke="#000000" d="M892.8045,-108.1964C898.6527,-141.5755 905.5285,-212.7597 867.9815,-252 831.1994,-290.441 670.5592,-301.6595 596.5561,-304.8169"/>
<polygon fill="#000000" stroke="#000000" points="586.2913,-305.2265 596.1039,-300.3312 591.2873,-305.0271 596.2834,-304.8277 596.2834,-304.8277 596.2834,-304.8277 591.2873,-305.0271 596.4628,-309.3241 586.2913,-305.2265 586.2913,-305.2265"/>
</g>
<!-- 11&#45;&gt;10 -->
<g id="edge13" class="edge">
<title>11&#45;&gt;10</title>
<path fill="none" stroke="#000000" d="M875.1027,-108.1686C868.768,-116.4614 861.1432,-126.443 854.189,-135.5467"/>
<polygon fill="#000000" stroke="#000000" points="848.0472,-143.5867 850.5416,-132.9083 851.0825,-139.6134 854.1177,-135.64 854.1177,-135.64 854.1177,-135.64 851.0825,-139.6134 857.6937,-138.3717 848.0472,-143.5867 848.0472,-143.5867"/>
</g>
<!-- 12 -->
<g id="node13" class="node">
<title>12</title>
<polygon fill="none" stroke="#000000" points="475.9815,-252 421.9815,-252 421.9815,-216 475.9815,-216 475.9815,-252"/>
<text text-anchor="middle" x="448.9815" y="-230.3" font-family="Inconsolata, DejaVu Sans Mono, monospace" font-size="14.00" fill="#000000">m13</text>
</g>
<!-- 12&#45;&gt;8 -->
<g id="edge14" class="edge">
<title>12&#45;&gt;8</title>
<path fill="none" stroke="#000000" d="M476.1726,-251.7978C490.3194,-261.0575 507.7972,-272.4975 523.0445,-282.4776"/>
<polygon fill="#000000" stroke="#000000" points="531.7221,-288.1575 520.8906,-286.446 527.5386,-285.4191 523.3551,-282.6808 523.3551,-282.6808 523.3551,-282.6808 527.5386,-285.4191 525.8196,-278.9157 531.7221,-288.1575 531.7221,-288.1575"/>
</g>
<!-- 13 -->
<g id="node14" class="node">
<title>13</title>
<polygon fill="none" stroke="#000000" points="915.9815,-36 861.9815,-36 861.9815,0 915.9815,0 915.9815,-36"/>
<text text-anchor="middle" x="888.9815" y="-14.3" font-family="Inconsolata, DejaVu Sans Mono, monospace" font-size="14.00" fill="#000000">m14</text>
</g>
<!-- 13&#45;&gt;8 -->
<g id="edge15" class="edge">
<title>13&#45;&gt;8</title>
<path fill="none" stroke="#000000" d="M904.972,-36.0831C912.6354,-45.9629 920.9981,-58.8437 924.9815,-72 948.5278,-149.7679 952.8177,-197.0282 892.9815,-252 850.2229,-291.2826 674.3087,-302.0973 596.4044,-304.9857"/>
<polygon fill="#000000" stroke="#000000" points="586.0863,-305.3428 595.9246,-300.4995 591.0833,-305.1698 596.0803,-304.9969 596.0803,-304.9969 596.0803,-304.9969 591.0833,-305.1698 596.236,-309.4942 586.0863,-305.3428 586.0863,-305.3428"/>
</g>
<!-- 13&#45;&gt;10 -->
<g id="edge16" class="edge">
<title>13&#45;&gt;10</title>
<path fill="none" stroke="#000000" d="M874.0963,-36.4815C866.7354,-46.4704 858.3096,-59.3284 852.9815,-72 844.651,-91.8124 839.8282,-115.6679 837.1275,-133.8395"/>
<polygon fill="#000000" stroke="#000000" points="835.772,-143.8083 832.6604,-133.2932 836.4457,-138.8539 837.1194,-133.8995 837.1194,-133.8995 837.1194,-133.8995 836.4457,-138.8539 841.5784,-134.5058 835.772,-143.8083 835.772,-143.8083"/>
</g>
<!-- 13&#45;&gt;11 -->
<g id="edge17" class="edge">
<title>13&#45;&gt;11</title>
<path fill="none" stroke="#000000" d="M888.9815,-36.1686C888.9815,-43.869 888.9815,-53.0257 888.9815,-61.5834"/>
<polygon fill="#000000" stroke="#000000" points="888.9815,-71.5867 884.4816,-61.5867 888.9816,-66.5867 888.9816,-61.5867 888.9816,-61.5867 888.9816,-61.5867 888.9816,-66.5867 893.4816,-61.5868 888.9815,-71.5867 888.9815,-71.5867"/>
</g>
<!-- 14 -->
<g id="node15" class="node">
<title>14</title>
<polygon fill="none" stroke="#000000" points="695.9815,-252 641.9815,-252 641.9815,-216 695.9815,-216 695.9815,-252"/>
<text text-anchor="middle" x="668.9815" y="-230.3" font-family="Inconsolata, DejaVu Sans Mono, monospace" font-size="14.00" fill="#000000">m15</text>
</g>
<!-- 15 -->
<g id="node16" class="node">
<title>15</title>
<polygon fill="none" stroke="#000000" points="549.9815,-180 495.9815,-180 495.9815,-144 549.9815,-144 549.9815,-180"/>
<text text-anchor="middle" x="522.9815" y="-158.3" font-family="Inconsolata, DejaVu Sans Mono, monospace" font-size="14.00" fill="#000000">m16</text>
</g>
<!-- 15&#45;&gt;8 -->
<g id="edge18" class="edge">
<title>15&#45;&gt;8</title>
<path fill="none" stroke="#000000" d="M519.9699,-180.0363C517.5711,-198.5334 515.6917,-227.9232 522.9815,-252 525.938,-261.7645 531.3068,-271.3771 537.0115,-279.7238"/>
<polygon fill="#000000" stroke="#000000" points="542.9911,-287.9169 533.4609,-282.4922 540.0434,-283.8782 537.0958,-279.8394 537.0958,-279.8394 537.0958,-279.8394 540.0434,-283.8782 540.7307,-277.1865 542.9911,-287.9169 542.9911,-287.9169"/>
</g>
<!-- 15&#45;&gt;9 -->
<g id="edge19" class="edge">
<title>15&#45;&gt;9</title>
<path fill="none" stroke="#000000" d="M532.0659,-180.1686C536.043,-188.1229 540.797,-197.631 545.1954,-206.4277"/>
<polygon fill="#000000" stroke="#000000" points="549.7749,-215.5867 541.2778,-208.6549 547.5388,-211.1146 545.3027,-206.6425 545.3027,-206.6425 545.3027,-206.6425 547.5388,-211.1146 549.3276,-204.63 549.7749,-215.5867 549.7749,-215.5867"/>
</g>
<!-- 16 -->
<g id="node17" class="node">
<title>16</title>
<polygon fill="none" stroke="#000000" points="640.9815,-180 586.9815,-180 586.9815,-144 640.9815,-144 640.9815,-180"/>
<text text-anchor="middle" x="613.9815" y="-158.3" font-family="Inconsolata, DejaVu Sans Mono, monospace" font-size="14.00" fill="#000000">m17</text>
</g>
<!-- 16&#45;&gt;8 -->
<g id="edge20" class="edge">
<title>16&#45;&gt;8</title>
<path fill="none" stroke="#000000" d="M612.1911,-180.1917C609.8928,-198.8125 604.9471,-228.2992 594.9815,-252 591.0271,-261.4047 585.3664,-270.9121 579.701,-279.273"/>
<polygon fill="#000000" stroke="#000000" points="573.8668,-287.5185 575.9694,-276.756 576.7548,-283.4369 579.6428,-279.3553 579.6428,-279.3553 579.6428,-279.3553 576.7548,-283.4369 583.3163,-281.9545 573.8668,-287.5185 573.8668,-287.5185"/>
</g>
<!-- 16&#45;&gt;9 -->
<g id="edge21" class="edge">
<title>16&#45;&gt;9</title>
<path fill="none" stroke="#000000" d="M600.1027,-180.1686C593.768,-188.4614 586.1432,-198.443 579.189,-207.5467"/>
<polygon fill="#000000" stroke="#000000" points="573.0472,-215.5867 575.5416,-204.9083 576.0825,-211.6134 579.1177,-207.64 579.1177,-207.64 579.1177,-207.64 576.0825,-211.6134 582.6937,-210.3717 573.0472,-215.5867 573.0472,-215.5867"/>
</g>
<!-- 16&#45;&gt;14 -->
<g id="edge22" class="edge">
<title>16&#45;&gt;14</title>
<path fill="none" stroke="#000000" d="M627.8604,-180.1686C634.1951,-188.4614 641.8199,-198.443 648.7741,-207.5467"/>
<polygon fill="#000000" stroke="#000000" points="654.9159,-215.5867 645.2694,-210.3717 651.8806,-211.6134 648.8454,-207.64 648.8454,-207.64 648.8454,-207.64 651.8806,-211.6134 652.4214,-204.9083 654.9159,-215.5867 654.9159,-215.5867"/>
</g>
<!-- 17 -->
<g id="node18" class="node">
<title>17</title>
<polygon fill="none" stroke="#000000" points="289.9815,-252 235.9815,-252 235.9815,-216 289.9815,-216 289.9815,-252"/>
<text text-anchor="middle" x="262.9815" y="-230.3" font-family="Inconsolata, DejaVu Sans Mono, monospace" font-size="14.00" fill="#000000">m18</text>
</g>
<!-- 17&#45;&gt;1 -->
<g id="edge23" class="edge">
<title>17&#45;&gt;1</title>
<path fill="none" stroke="#000000" d="M249.1027,-252.1686C242.768,-260.4614 235.1432,-270.443 228.189,-279.5467"/>
<polygon fill="#000000" stroke="#000000" points="222.0472,-287.5867 224.5416,-276.9083 225.0825,-283.6134 228.1177,-279.64 228.1177,-279.64 228.1177,-279.64 225.0825,-283.6134 231.6937,-282.3717 222.0472,-287.5867 222.0472,-287.5867"/>
</g>
<!-- 18 -->
<g id="node19" class="node">
<title>18</title>
<polygon fill="none" stroke="#000000" points="209.9815,-108 155.9815,-108 155.9815,-72 209.9815,-72 209.9815,-108"/>
<text text-anchor="middle" x="182.9815" y="-86.3" font-family="Inconsolata, DejaVu Sans Mono, monospace" font-size="14.00" fill="#000000">m19</text>
</g>
<!-- 19 -->
<g id="node20" class="node">
<title>19</title>
<polygon fill="none" stroke="#000000" points="209.9815,-180 155.9815,-180 155.9815,-144 209.9815,-144 209.9815,-180"/>
<text text-anchor="middle" x="182.9815" y="-158.3" font-family="Inconsolata, DejaVu Sans Mono, monospace" font-size="14.00" fill="#000000">m20</text>
</g>
<!-- 18&#45;&gt;19 -->
<g id="edge24" class="edge">
<title>18&#45;&gt;19</title>
<path fill="none" stroke="#000000" d="M182.9815,-108.1686C182.9815,-115.869 182.9815,-125.0257 182.9815,-133.5834"/>
<polygon fill="#000000" stroke="#000000" points="182.9815,-143.5867 178.4816,-133.5867 182.9816,-138.5867 182.9816,-133.5867 182.9816,-133.5867 182.9816,-133.5867 182.9816,-138.5867 187.4816,-133.5868 182.9815,-143.5867 182.9815,-143.5867"/>
</g>
<!-- 19&#45;&gt;1 -->
<g id="edge25" class="edge">
<title>19&#45;&gt;1</title>
<path fill="none" stroke="#000000" d="M184.4799,-180.0377C186.1609,-198.2858 189.2832,-227.2561 193.9815,-252 195.5822,-260.4296 197.7516,-269.4921 199.9045,-277.7397"/>
<polygon fill="#000000" stroke="#000000" points="202.5786,-287.642 195.6271,-279.1611 201.275,-282.8149 199.9715,-277.9879 199.9715,-277.9879 199.9715,-277.9879 201.275,-282.8149 204.3158,-276.8146 202.5786,-287.642 202.5786,-287.642"/>
</g>
<!-- 19&#45;&gt;2 -->
<g id="edge26" class="edge">
<title>19&#45;&gt;2</title>
<path fill="none" stroke="#000000" d="M165.8223,-180.1686C157.8304,-188.6306 148.1777,-198.8511 139.4399,-208.1029"/>
<polygon fill="#000000" stroke="#000000" points="132.3718,-215.5867 135.9665,-205.2268 135.805,-211.9517 139.2381,-208.3166 139.2381,-208.3166 139.2381,-208.3166 135.805,-211.9517 142.5097,-211.4064 132.3718,-215.5867 132.3718,-215.5867"/>
</g>
<!-- 19&#45;&gt;17 -->
<g id="edge27" class="edge">
<title>19&#45;&gt;17</title>
<path fill="none" stroke="#000000" d="M203.1689,-180.1686C212.8329,-188.8663 224.5612,-199.4217 235.0632,-208.8735"/>
<polygon fill="#000000" stroke="#000000" points="242.8006,-215.8372 232.3573,-212.4923 239.0841,-212.4923 235.3677,-209.1475 235.3677,-209.1475 235.3677,-209.1475 239.0841,-212.4923 238.378,-205.8027 242.8006,-215.8372 242.8006,-215.8372"/>
</g>
<!-- 20 -->
<g id="node21" class="node">
<title>20</title>
<polygon fill="none" stroke="#000000" points="1131.9815,-108 1077.9815,-108 1077.9815,-72 1131.9815,-72 1131.9815,-108"/>
<text text-anchor="middle" x="1104.9815" y="-86.3" font-family="Inconsolata, DejaVu Sans Mono, monospace" font-size="14.00" fill="#000000">m21</text>
</g>
<!-- 21 -->
<g id="node22" class="node">
<title>21</title>
<polygon fill="none" stroke="#000000" points="1059.9815,-36 1005.9815,-36 1005.9815,0 1059.9815,0 1059.9815,-36"/>
<text text-anchor="middle" x="1032.9815" y="-14.3" font-family="Inconsolata, DejaVu Sans Mono, monospace" font-size="14.00" fill="#000000">m22</text>
</g>
<!-- 21&#45;&gt;20 -->
<g id="edge28" class="edge">
<title>21&#45;&gt;20</title>
<path fill="none" stroke="#000000" d="M1051.1502,-36.1686C1059.6968,-44.7152 1070.0372,-55.0557 1079.3617,-64.3802"/>
<polygon fill="#000000" stroke="#000000" points="1086.5683,-71.5867 1076.3152,-67.6976 1083.0327,-68.0512 1079.4972,-64.5156 1079.4972,-64.5156 1079.4972,-64.5156 1083.0327,-68.0512 1082.6792,-61.3336 1086.5683,-71.5867 1086.5683,-71.5867"/>
</g>
<!-- 22 -->
<g id="node23" class="node">
<title>22</title>
<polygon fill="none" stroke="#000000" points="1131.9815,-36 1077.9815,-36 1077.9815,0 1131.9815,0 1131.9815,-36"/>
<text text-anchor="middle" x="1104.9815" y="-14.3" font-family="Inconsolata, DejaVu Sans Mono, monospace" font-size="14.00" fill="#000000">m23</text>
</g>
<!-- 22&#45;&gt;20 -->
<g id="edge29" class="edge">
<title>22&#45;&gt;20</title>
<path fill="none" stroke="#000000" d="M1104.9815,-36.1686C1104.9815,-43.869 1104.9815,-53.0257 1104.9815,-61.5834"/>
<polygon fill="#000000" stroke="#000000" points="1104.9815,-71.5867 1100.4816,-61.5867 1104.9816,-66.5867 1104.9816,-61.5867 1104.9816,-61.5867 1104.9816,-61.5867 1104.9816,-66.5867 1109.4816,-61.5868 1104.9815,-71.5867 1104.9815,-71.5867"/>
</g>
<!-- 23 -->
<g id="node24" class="node">
<title>23</title>
<polygon fill="none" stroke="#000000" points="1203.9815,-36 1149.9815,-36 1149.9815,0 1203.9815,0 1203.9815,-36"/>
<text text-anchor="middle" x="1176.9815" y="-14.3" font-family="Inconsolata, DejaVu Sans Mono, monospace" font-size="14.00" fill="#000000">m24</text>
</g>
<!-- 23&#45;&gt;20 -->
<g id="edge30" class="edge">
<title>23&#45;&gt;20</title>
<path fill="none" stroke="#000000" d="M1158.8129,-36.1686C1150.2663,-44.7152 1139.9259,-55.0557 1130.6014,-64.3802"/>
<polygon fill="#000000" stroke="#000000" points="1123.3948,-71.5867 1127.2839,-61.3336 1126.9304,-68.0512 1130.4659,-64.5156 1130.4659,-64.5156 1130.4659,-64.5156 1126.9304,-68.0512 1133.6479,-67.6976 1123.3948,-71.5867 1123.3948,-71.5867"/>
</g>
<!-- 24 -->
<g id="node25" class="node">
<title>24</title>
<polygon fill="none" stroke="#000000" points="281.9815,-180 227.9815,-180 227.9815,-144 281.9815,-144 281.9815,-180"/>
<text text-anchor="middle" x="254.9815" y="-158.3" font-family="Inconsolata, DejaVu Sans Mono, monospace" font-size="14.00" fill="#000000">m25</text>
</g>
<!-- 24&#45;&gt;1 -->
<g id="edge31" class="edge">
<title>24&#45;&gt;1</title>
<path fill="none" stroke="#000000" d="M243.8402,-180.4298C238.0951,-190.6141 231.388,-203.6688 226.9815,-216 219.7941,-236.1134 214.9306,-259.7768 211.9247,-277.7904"/>
<polygon fill="#000000" stroke="#000000" points="210.3659,-287.6741 207.4788,-277.0952 211.1449,-282.7352 211.9238,-277.7962 211.9238,-277.7962 211.9238,-277.7962 211.1449,-282.7352 216.3689,-278.4973 210.3659,-287.6741 210.3659,-287.6741"/>
</g>
<!-- 24&#45;&gt;17 -->
<g id="edge32" class="edge">
<title>24&#45;&gt;17</title>
<path fill="none" stroke="#000000" d="M257.0003,-180.1686C257.8559,-187.869 258.8733,-197.0257 259.8241,-205.5834"/>
<polygon fill="#000000" stroke="#000000" points="260.9356,-215.5867 255.3587,-206.1449 260.3834,-210.6173 259.8312,-205.6479 259.8312,-205.6479 259.8312,-205.6479 260.3834,-210.6173 264.3037,-205.1509 260.9356,-215.5867 260.9356,-215.5867"/>
</g>
<!-- 25 -->
<g id="node26" class="node">
<title>25</title>
<polygon fill="none" stroke="#000000" points="353.9815,-180 299.9815,-180 299.9815,-144 353.9815,-144 353.9815,-180"/>
<text text-anchor="middle" x="326.9815" y="-158.3" font-family="Inconsolata, DejaVu Sans Mono, monospace" font-size="14.00" fill="#000000">m26</text>
</g>
<!-- 25&#45;&gt;8 -->
<g id="edge33" class="edge">
<title>25&#45;&gt;8</title>
<path fill="none" stroke="#000000" d="M336.2783,-180.171C347.5487,-200.4707 368.3816,-232.9732 394.9815,-252 433.3708,-279.4597 486.5785,-293.5689 521.853,-300.3623"/>
<polygon fill="#000000" stroke="#000000" points="531.7434,-302.166 521.0983,-304.7988 526.8245,-301.2689 521.9057,-300.3718 521.9057,-300.3718 521.9057,-300.3718 526.8245,-301.2689 522.7131,-295.9448 531.7434,-302.166 531.7434,-302.166"/>
</g>
<!-- 25&#45;&gt;17 -->
<g id="edge34" class="edge">
<title>25&#45;&gt;17</title>
<path fill="none" stroke="#000000" d="M310.8316,-180.1686C303.3099,-188.6306 294.225,-198.8511 286.0012,-208.1029"/>
<polygon fill="#000000" stroke="#000000" points="279.3489,-215.5867 282.6292,-205.123 282.6707,-211.8497 285.9926,-208.1126 285.9926,-208.1126 285.9926,-208.1126 282.6707,-211.8497 289.3559,-211.1023 279.3489,-215.5867 279.3489,-215.5867"/>
</g>
<!-- 26 -->
<g id="node27" class="node">
<title>26</title>
<polygon fill="none" stroke="#000000" points="425.9815,-180 371.9815,-180 371.9815,-144 425.9815,-144 425.9815,-180"/>
<text text-anchor="middle" x="398.9815" y="-158.3" font-family="Inconsolata, DejaVu Sans Mono, monospace" font-size="14.00" fill="#000000">m27</text>
</g>
<!-- 26&#45;&gt;1 -->
<g id="edge35" class="edge">
<title>26&#45;&gt;1</title>
<path fill="none" stroke="#000000" d="M381.1207,-180.0716C361.8055,-199.1229 329.6505,-229.4416 298.9815,-252 281.7503,-264.6744 261.3683,-276.9904 244.2663,-286.6522"/>
<polygon fill="#000000" stroke="#000000" points="235.1435,-291.7322 241.691,-282.9355 239.5119,-289.2996 243.8803,-286.8671 243.8803,-286.8671 243.8803,-286.8671 239.5119,-289.2996 246.0695,-290.7986 235.1435,-291.7322 235.1435,-291.7322"/>
</g>
<!-- 26&#45;&gt;8 -->
<g id="edge36" class="edge">
<title>26&#45;&gt;8</title>
<path fill="none" stroke="#000000" d="M396.7949,-180.0149C395.4118,-199.8694 396.3655,-231.679 412.9815,-252 439.7249,-284.7065 488.2499,-297.6048 521.9816,-302.6906"/>
<polygon fill="#000000" stroke="#000000" points="531.9347,-304.0314 521.4234,-307.156 526.9795,-303.3638 522.0242,-302.6962 522.0242,-302.6962 522.0242,-302.6962 526.9795,-303.3638 522.6251,-298.2365 531.9347,-304.0314 531.9347,-304.0314"/>
</g>
<!-- 26&#45;&gt;9 -->
<g id="edge37" class="edge">
<title>26&#45;&gt;9</title>
<path fill="none" stroke="#000000" d="M426.1234,-174.2138C452.6373,-186.1451 493.1721,-204.3858 522.4958,-217.5814"/>
<polygon fill="#000000" stroke="#000000" points="531.974,-221.8466 521.0082,-221.8466 527.4144,-219.7948 522.8548,-217.7429 522.8548,-217.7429 522.8548,-217.7429 527.4144,-219.7948 524.7015,-213.6393 531.974,-221.8466 531.974,-221.8466"/>
</g>
<!-- 27 -->
<g id="node28" class="node">
<title>27</title>
<polygon fill="none" stroke="#000000" points="896.9815,-324 842.9815,-324 842.9815,-288 896.9815,-288 896.9815,-324"/>
<text text-anchor="middle" x="869.9815" y="-302.3" font-family="Inconsolata, DejaVu Sans Mono, monospace" font-size="14.00" fill="#000000">m28</text>
</g>
<!-- 28 -->
<g id="node29" class="node">
<title>28</title>
<polygon fill="none" stroke="#000000" points="1025.9815,-252 971.9815,-252 971.9815,-216 1025.9815,-216 1025.9815,-252"/>
<text text-anchor="middle" x="998.9815" y="-230.3" font-family="Inconsolata, DejaVu Sans Mono, monospace" font-size="14.00" fill="#000000">m29</text>
</g>
<!-- 28&#45;&gt;27 -->
<g id="edge38" class="edge">
<title>28&#45;&gt;27</title>
<path fill="none" stroke="#000000" d="M971.9389,-249.0936C952.7605,-259.7978 926.8207,-274.2758 905.9055,-285.9494"/>
<polygon fill="#000000" stroke="#000000" points="896.9886,-290.9263 903.5274,-282.1232 901.3546,-288.4895 905.7206,-286.0526 905.7206,-286.0526 905.7206,-286.0526 901.3546,-288.4895 907.9137,-289.982 896.9886,-290.9263 896.9886,-290.9263"/>
</g>
<!-- 29 -->
<g id="node30" class="node">
<title>29</title>
<polygon fill="none" stroke="#000000" points="1275.9815,-36 1221.9815,-36 1221.9815,0 1275.9815,0 1275.9815,-36"/>
<text text-anchor="middle" x="1248.9815" y="-14.3" font-family="Inconsolata, DejaVu Sans Mono, monospace" font-size="14.00" fill="#000000">m30</text>
</g>
<!-- 30 -->
<g id="node31" class="node">
<title>30</title>
<polygon fill="none" stroke="#000000" points="767.9815,-252 713.9815,-252 713.9815,-216 767.9815,-216 767.9815,-252"/>
<text text-anchor="middle" x="740.9815" y="-230.3" font-family="Inconsolata, DejaVu Sans Mono, monospace" font-size="14.00" fill="#000000">m31</text>
</g>
<!-- 30&#45;&gt;1 -->
<g id="edge39" class="edge">
<title>30&#45;&gt;1</title>
<path fill="none" stroke="#000000" d="M713.8752,-248.8034C710.9306,-250.0319 707.9313,-251.1328 704.9815,-252 618.6148,-277.3913 345.8793,-297.0898 245.5207,-303.6491"/>
<polygon fill="#000000" stroke="#000000" points="235.2543,-304.3134 244.9428,-299.177 240.2438,-303.9905 245.2334,-303.6676 245.2334,-303.6676 245.2334,-303.6676 240.2438,-303.9905 245.524,-308.1582 235.2543,-304.3134 235.2543,-304.3134"/>
</g>
<!-- 30&#45;&gt;27 -->
<g id="edge40" class="edge">
<title>30&#45;&gt;27</title>
<path fill="none" stroke="#000000" d="M768.0242,-249.0936C787.2026,-259.7978 813.1424,-274.2758 834.0576,-285.9494"/>
<polygon fill="#000000" stroke="#000000" points="842.9745,-290.9263 832.0494,-289.982 838.6085,-288.4895 834.2425,-286.0526 834.2425,-286.0526 834.2425,-286.0526 838.6085,-288.4895 836.4357,-282.1232 842.9745,-290.9263 842.9745,-290.9263"/>
</g>
<!-- 31 -->
<g id="node32" class="node">
<title>31</title>
<polygon fill="none" stroke="#000000" points="767.9815,-180 713.9815,-180 713.9815,-144 767.9815,-144 767.9815,-180"/>
<text text-anchor="middle" x="740.9815" y="-158.3" font-family="Inconsolata, DejaVu Sans Mono, monospace" font-size="14.00" fill="#000000">m32</text>
</g>
<!-- 31&#45;&gt;30 -->
<g id="edge41" class="edge">
<title>31&#45;&gt;30</title>
<path fill="none" stroke="#000000" d="M740.9815,-180.1686C740.9815,-187.869 740.9815,-197.0257 740.9815,-205.5834"/>
<polygon fill="#000000" stroke="#000000" points="740.9815,-215.5867 736.4816,-205.5867 740.9816,-210.5867 740.9816,-205.5867 740.9816,-205.5867 740.9816,-205.5867 740.9816,-210.5867 745.4816,-205.5868 740.9815,-215.5867 740.9815,-215.5867"/>
</g>
<!-- 32 -->
<g id="node33" class="node">
<title>32</title>
<polygon fill="none" stroke="#000000" points="1347.9815,-36 1293.9815,-36 1293.9815,0 1347.9815,0 1347.9815,-36"/>
<text text-anchor="middle" x="1320.9815" y="-14.3" font-family="Inconsolata, DejaVu Sans Mono, monospace" font-size="14.00" fill="#000000">m33</text>
</g>
</g>
</svg>
