<?xml version="1.0" encoding="UTF-8" standalone="no"?>
<!DOCTYPE svg PUBLIC "-//W3C//DTD SVG 1.1//EN"
 "http://www.w3.org/Graphics/SVG/1.1/DTD/svg11.dtd">
<!-- Generated by graphviz version 2.40.1 (20161225.0304)
 -->
<!-- Title: packages Pages: 1 -->
<svg width="1458pt" height="332pt"
 viewBox="0.00 0.00 1458.00 332.00" xmlns="http://www.w3.org/2000/svg" xmlns:xlink="http://www.w3.org/1999/xlink">
<g id="graph0" class="graph" transform="scale(1 1) rotate(0) translate(4 328)">
<title>packages</title>
<polygon fill="#ffffff" stroke="transparent" points="-4,4 -4,-328 1454,-328 1454,4 -4,4"/>
<!-- 0 -->
<g id="node1" class="node">
<title>0</title>
<polygon fill="none" stroke="#000000" points="769,-36 715,-36 715,0 769,0 769,-36"/>
<text text-anchor="middle" x="742" y="-14.3" font-family="Inconsolata, DejaVu Sans Mono, monospace" font-size="14.00" fill="#000000">m01</text>
</g>
<!-- 1 -->
<g id="node2" class="node">
<title>1</title>
<polygon fill="none" stroke="#000000" points="274,-324 220,-324 220,-288 274,-288 274,-324"/>
<text text-anchor="middle" x="247" y="-302.3" font-family="Inconsolata, DejaVu Sans Mono, monospace" font-size="14.00" fill="#000000">m02</text>
</g>
<!-- 2 -->
<g id="node3" class="node">
<title>2</title>
<polygon fill="none" stroke="#000000" points="164,-252 110,-252 110,-216 164,-216 164,-252"/>
<text text-anchor="middle" x="137" y="-230.3" font-family="Inconsolata, DejaVu Sans Mono, monospace" font-size="14.00" fill="#000000">m03</text>
</g>
<!-- 2&#45;&gt;1 -->
<g id="edge1" class="edge">
<title>2&#45;&gt;1</title>
<path fill="none" stroke="#000000" d="M164.191,-251.7978C178.3378,-261.0575 195.8157,-272.4975 211.063,-282.4776"/>
<polygon fill="#000000" stroke="#000000" points="219.7406,-288.1575 208.909,-286.446 215.557,-285.4191 211.3735,-282.6808 211.3735,-282.6808 211.3735,-282.6808 215.557,-285.4191 213.838,-278.9157 219.7406,-288.1575 219.7406,-288.1575"/>
</g>
<!-- 3 -->
<g id="node4" class="node">
<title>3</title>
<polygon fill="none" stroke="#000000" points="156,-180 102,-180 102,-144 156,-144 156,-180"/>
<text text-anchor="middle" x="129" y="-158.3" font-family="Inconsolata, DejaVu Sans Mono, monospace" font-size="14.00" fill="#000000">m04</text>
</g>
<!-- 3&#45;&gt;2 -->
<g id="edge2" class="edge">
<title>3&#45;&gt;2</title>
<path fill="none" stroke="#000000" d="M131.0187,-180.1686C131.8743,-187.869 132.8917,-197.0257 133.8426,-205.5834"/>
<polygon fill="#000000" stroke="#000000" points="134.9541,-215.5867 129.3772,-206.1449 134.4019,-210.6173 133.8497,-205.6479 133.8497,-205.6479 133.8497,-205.6479 134.4019,-210.6173 138.3222,-205.1509 134.9541,-215.5867 134.9541,-215.5867"/>
</g>
<!-- 4 -->
<g id="node5" class="node">
<title>4</title>
<polygon fill="none" stroke="#000000" points="54,-252 0,-252 0,-216 54,-216 54,-252"/>
<text text-anchor="middle" x="27" y="-230.3" font-family="Inconsolata, DejaVu Sans Mono, monospace" font-size="14.00" fill="#000000">m05</text>
</g>
<!-- 4&#45;&gt;1 -->
<g id="edge3" class="edge">
<title>4&#45;&gt;1</title>
<path fill="none" stroke="#000000" d="M54.1596,-246.4707C58.7415,-248.4164 63.478,-250.3322 68,-252 116.4368,-269.8644 173.7796,-286.3745 210.2663,-296.3177"/>
<polygon fill="#000000" stroke="#000000" points="219.9796,-298.9438 209.1517,-300.6779 215.1529,-297.6388 210.3262,-296.3339 210.3262,-296.3339 210.3262,-296.3339 215.1529,-297.6388 211.5006,-291.9898 219.9796,-298.9438 219.9796,-298.9438"/>
</g>
<!-- 5 -->
<g id="node6" class="node">
<title>5</title>
<polygon fill="none" stroke="#000000" points="84,-180 30,-180 30,-144 84,-144 84,-180"/>
<text text-anchor="middle" x="57" y="-158.3" font-family="Inconsolata, DejaVu Sans Mono, monospace" font-size="14.00" fill="#000000">m06</text>
</g>
<!-- 5&#45;&gt;1 -->
<g id="edge4" class="edge">
<title>5&#45;&gt;1</title>
<path fill="none" stroke="#000000" d="M61.445,-180.0063C67.2963,-200.1549 79.4567,-232.519 101,-252 131.6586,-279.7236 177.7975,-293.5954 209.9757,-300.2711"/>
<polygon fill="#000000" stroke="#000000" points="219.8953,-302.1941 209.2217,-304.7086 214.9867,-301.2424 210.0781,-300.2908 210.0781,-300.2908 210.0781,-300.2908 214.9867,-301.2424 210.9346,-295.8731 219.8953,-302.1941 219.8953,-302.1941"/>
</g>
<!-- 5&#45;&gt;2 -->
<g id="edge5" class="edge">
<title>5&#45;&gt;2</title>
<path fill="none" stroke="#000000" d="M77.1874,-180.1686C86.8514,-188.8663 98.5796,-199.4217 109.0816,-208.8735"/>
<polygon fill="#000000" stroke="#000000" points="116.8191,-215.8372 106.3758,-212.4923 113.1026,-212.4923 109.3861,-209.1475 109.3861,-209.1475 109.3861,-209.1475 113.1026,-212.4923 112.3965,-205.8027 116.8191,-215.8372 116.8191,-215.8372"/>
</g>
<!-- 5&#45;&gt;4 -->
<g id="edge6" class="edge">
<title>5&#45;&gt;4</title>
<path fill="none" stroke="#000000" d="M49.4297,-180.1686C46.1507,-188.0383 42.238,-197.4288 38.6055,-206.1467"/>
<polygon fill="#000000" stroke="#000000" points="34.6722,-215.5867 34.3646,-204.6252 36.5953,-210.9713 38.5184,-206.356 38.5184,-206.356 38.5184,-206.356 36.5953,-210.9713 42.6723,-208.0868 34.6722,-215.5867 34.6722,-215.5867"/>
</g>
<!-- 6 -->
<g id="node7" class="node">
<title>6</title>
<polygon fill="none" stroke="#000000" points="1001,-36 947,-36 947,0 1001,0 1001,-36"/>
<text text-anchor="middle" x="974" y="-14.3" font-family="Inconsolata, DejaVu Sans Mono, monospace" font-size="14.00" fill="#000000">m07</text>
</g>
<!-- 7 -->
<g id="node8" class="node">
<title>7</title>
<polygon fill="none" stroke="#000000" points="828,-252 774,-252 774,-216 828,-216 828,-252"/>
<text text-anchor="middle" x="801" y="-230.3" font-family="Inconsolata, DejaVu Sans Mono, monospace" font-size="14.00" fill="#000000">m08</text>
</g>
<!-- 8 -->
<g id="node9" class="node">
<title>8</title>
<polygon fill="none" stroke="#000000" points="735,-324 681,-324 681,-288 735,-288 735,-324"/>
<text text-anchor="middle" x="708" y="-302.3" font-family="Inconsolata, DejaVu Sans Mono, monospace" font-size="14.00" fill="#000000">m09</text>
</g>
<!-- 9 -->
<g id="node10" class="node">
<title>9</title>
<polygon fill="none" stroke="#000000" points="680,-252 626,-252 626,-216 680,-216 680,-252"/>
<text text-anchor="middle" x="653" y="-230.3" font-family="Inconsolata, DejaVu Sans Mono, monospace" font-size="14.00" fill="#000000">m10</text>
</g>
<!-- 9&#45;&gt;1 -->
<g id="edge7" class="edge">
<title>9&#45;&gt;1</title>
<path fill="none" stroke="#000000" d="M625.7308,-238.8359C554.9468,-251.3888 365.2474,-285.03 284.3661,-299.3735"/>
<polygon fill="#000000" stroke="#000000" points="274.1505,-301.1851 283.2111,-295.008 279.0737,-300.312 283.9969,-299.4389 283.9969,-299.4389 283.9969,-299.4389 279.0737,-300.312 284.7827,-303.8698 274.1505,-301.1851 274.1505,-301.1851"/>
</g>
<!-- 9&#45;&gt;8 -->
<g id="edge8" class="edge">
<title>9&#45;&gt;8</title>
<path fill="none" stroke="#000000" d="M666.8788,-252.1686C673.2136,-260.4614 680.8384,-270.443 687.7926,-279.5467"/>
<polygon fill="#000000" stroke="#000000" points="693.9343,-287.5867 684.2878,-282.3717 690.8991,-283.6134 687.8639,-279.64 687.8639,-279.64 687.8639,-279.64 690.8991,-283.6134 691.4399,-276.9083 693.9343,-287.5867 693.9343,-287.5867"/>
</g>
<!-- 10 -->
<g id="node11" class="node">
<title>10</title>
<polygon fill="none" stroke="#000000" points="777,-180 723,-180 723,-144 777,-144 777,-180"/>
<text text-anchor="middle" x="750" y="-158.3" font-family="Inconsolata, DejaVu Sans Mono, monospace" font-size="14.00" fill="#000000">m11</text>
</g>
<!-- 10&#45;&gt;7 -->
<g id="edge9" class="edge">
<title>10&#45;&gt;7</title>
<path fill="none" stroke="#000000" d="M762.8695,-180.1686C768.6835,-188.3768 775.6696,-198.2394 782.0646,-207.2677"/>
<polygon fill="#000000" stroke="#000000" points="787.9573,-215.5867 778.5049,-210.0276 785.0672,-211.5066 782.1771,-207.4265 782.1771,-207.4265 782.1771,-207.4265 785.0672,-211.5066 785.8492,-204.8254 787.9573,-215.5867 787.9573,-215.5867"/>
</g>
<!-- 10&#45;&gt;8 -->
<g id="edge10" class="edge">
<title>10&#45;&gt;8</title>
<path fill="none" stroke="#000000" d="M744.6807,-180.2377C737.4854,-204.9072 724.5841,-249.1402 716.1588,-278.0269"/>
<polygon fill="#000000" stroke="#000000" points="713.2761,-287.9104 711.7562,-277.0503 714.6762,-283.1104 716.0762,-278.3104 716.0762,-278.3104 716.0762,-278.3104 714.6762,-283.1104 720.3962,-279.5704 713.2761,-287.9104 713.2761,-287.9104"/>
</g>
<!-- 10&#45;&gt;9 -->
<g id="edge11" class="edge">
<title>10&#45;&gt;9</title>
<path fill="none" stroke="#000000" d="M725.5228,-180.1686C713.4605,-189.1221 698.746,-200.0442 685.7314,-209.7045"/>
<polygon fill="#000000" stroke="#000000" points="677.4694,-215.8372 682.817,-206.2636 681.4842,-212.8571 685.4991,-209.8769 685.4991,-209.8769 685.4991,-209.8769 681.4842,-212.8571 688.1812,-213.4903 677.4694,-215.8372 677.4694,-215.8372"/>
</g>
<!-- 11 -->
<g id="node12" class="node">
<title>11</title>
<polygon fill="none" stroke="#000000" points="841,-108 787,-108 787,-72 841,-72 841,-108"/>
<text text-anchor="middle" x="814" y="-86.3" font-family="Inconsolata, DejaVu Sans Mono, monospace" font-size="14.00" fill="#000000">m12</text>
</g>
<!-- 11&#45;&gt;8 -->
<g id="edge12" class="edge">
<title>11&#45;&gt;8</title>
<path fill="none" stroke="#000000" d="M841.1283,-102.1987C846.6344,-104.3605 852.4424,-106.4215 858,-108 951.6213,-134.5904 1001.2223,-79.3826 1074,-144 1110.566,-176.466 1127.0988,-215.1113 1095,-252 1072.1671,-278.2401 837.5238,-297.0953 745.1114,-303.5563"/>
<polygon fill="#000000" stroke="#000000" points="735.0808,-304.2478 744.7476,-299.0706 740.069,-303.9039 745.0571,-303.5599 745.0571,-303.5599 745.0571,-303.5599 740.069,-303.9039 745.3667,-308.0493 735.0808,-304.2478 735.0808,-304.2478"/>
</g>
<!-- 11&#45;&gt;10 -->
<g id="edge13" class="edge">
<title>11&#45;&gt;10</title>
<path fill="none" stroke="#000000" d="M797.8501,-108.1686C790.3283,-116.6306 781.2435,-126.8511 773.0196,-136.1029"/>
<polygon fill="#000000" stroke="#000000" points="766.3673,-143.5867 769.6477,-133.123 769.6892,-139.8497 773.011,-136.1126 773.011,-136.1126 773.011,-136.1126 769.6892,-139.8497 776.3744,-139.1023 766.3673,-143.5867 766.3673,-143.5867"/>
</g>
<!-- 12 -->
<g id="node13" class="node">
<title>12</title>
<polygon fill="none" stroke="#000000" points="532,-252 478,-252 478,-216 532,-216 532,-252"/>
<text text-anchor="middle" x="505" y="-230.3" font-family="Inconsolata, DejaVu Sans Mono, monospace" font-size="14.00" fill="#000000">m13</text>
</g>
<!-- 12&#45;&gt;8 -->
<g id="edge14" class="edge">
<title>12&#45;&gt;8</title>
<path fill="none" stroke="#000000" d="M532.2017,-246.359C536.7785,-248.3182 541.5024,-250.2673 546,-252 588.3699,-268.3227 638.0263,-284.4426 671.0855,-294.76"/>
<polygon fill="#000000" stroke="#000000" points="680.786,-297.7695 669.9017,-299.1043 676.0105,-296.288 671.2351,-294.8064 671.2351,-294.8064 671.2351,-294.8064 676.0105,-296.288 672.5685,-290.5085 680.786,-297.7695 680.786,-297.7695"/>
</g>
<!-- 13 -->
<g id="node14" class="node">
<title>13</title>
<polygon fill="none" stroke="#000000" points="841,-36 787,-36 787,0 841,0 841,-36"/>
<text text-anchor="middle" x="814" y="-14.3" font-family="Inconsolata, DejaVu Sans Mono, monospace" font-size="14.00" fill="#000000">m14</text>
</g>
<!-- 13&#45;&gt;8 -->
<g id="edge15" class="edge">
<title>13&#45;&gt;8</title>
<path fill="none" stroke="#000000" d="M841.1632,-21.553C898.8562,-30.6108 1033.8939,-60.1041 1102,-144 1132.543,-181.6241 1148.9456,-215.5594 1117,-252 1092.6245,-279.8053 841.4295,-297.89 745.2155,-303.8433"/>
<polygon fill="#000000" stroke="#000000" points="735.0685,-304.4615 744.7763,-299.3616 740.0593,-304.1574 745.05,-303.8533 745.05,-303.8533 745.05,-303.8533 740.0593,-304.1574 745.3237,-308.3449 735.0685,-304.4615 735.0685,-304.4615"/>
</g>
<!-- 13&#45;&gt;10 -->
<g id="edge16" class="edge">
<title>13&#45;&gt;10</title>
<path fill="none" stroke="#000000" d="M799.9516,-36.2058C792.6459,-46.3245 784.0118,-59.388 778,-72 768.4794,-91.9731 761.2047,-115.9553 756.4594,-134.1394"/>
<polygon fill="#000000" stroke="#000000" points="754.0226,-143.8419 752.0941,-133.0469 755.2406,-138.9925 756.4585,-134.1431 756.4585,-134.1431 756.4585,-134.1431 755.2406,-138.9925 760.823,-135.2393 754.0226,-143.8419 754.0226,-143.8419"/>
</g>
<!-- 13&#45;&gt;11 -->
<g id="edge17" class="edge">
<title>13&#45;&gt;11</title>
<path fill="none" stroke="#000000" d="M814,-36.1686C814,-43.869 814,-53.0257 814,-61.5834"/>
<polygon fill="#000000" stroke="#000000" points="814,-71.5867 809.5001,-61.5867 814,-66.5867 814.0001,-61.5867 814.0001,-61.5867 814.0001,-61.5867 814,-66.5867 818.5001,-61.5868 814,-71.5867 814,-71.5867"/>
</g>
<!-- 14 -->
<g id="node15" class="node">
<title>14</title>
<polygon fill="none" stroke="#000000" points="460,-252 406,-252 406,-216 460,-216 460,-252"/>
<text text-anchor="middle" x="433" y="-230.3" font-family="Inconsolata, DejaVu Sans Mono, monospace" font-size="14.00" fill="#000000">m15</text>
</g>
<!-- 15 -->
<g id="node16" class="node">
<title>15</title>
<polygon fill="none" stroke="#000000" points="701,-180 647,-180 647,-144 701,-144 701,-180"/>
<text text-anchor="middle" x="674" y="-158.3" font-family="Inconsolata, DejaVu Sans Mono, monospace" font-size="14.00" fill="#000000">m16</text>
</g>
<!-- 15&#45;&gt;8 -->
<g id="edge18" class="edge">
<title>15&#45;&gt;8</title>
<path fill="none" stroke="#000000" d="M679.4259,-180.4191C682.4126,-190.8227 686.0918,-204.0902 689,-216 694.0431,-236.6524 698.9792,-260.1634 702.5557,-277.975"/>
<polygon fill="#000000" stroke="#000000" points="704.5453,-287.9951 698.1839,-279.063 703.5715,-283.0908 702.5977,-278.1866 702.5977,-278.1866 702.5977,-278.1866 703.5715,-283.0908 707.0115,-277.3101 704.5453,-287.9951 704.5453,-287.9951"/>
</g>
<!-- 15&#45;&gt;9 -->
<g id="edge19" class="edge">
<title>15&#45;&gt;9</title>
<path fill="none" stroke="#000000" d="M668.7008,-180.1686C666.4302,-187.9537 663.7254,-197.2271 661.206,-205.8653"/>
<polygon fill="#000000" stroke="#000000" points="658.3705,-215.5867 656.8506,-204.7267 659.7706,-210.7867 661.1706,-205.9867 661.1706,-205.9867 661.1706,-205.9867 659.7706,-210.7867 665.4906,-207.2468 658.3705,-215.5867 658.3705,-215.5867"/>
</g>
<!-- 16 -->
<g id="node17" class="node">
<title>16</title>
<polygon fill="none" stroke="#000000" points="625,-180 571,-180 571,-144 625,-144 625,-180"/>
<text text-anchor="middle" x="598" y="-158.3" font-family="Inconsolata, DejaVu Sans Mono, monospace" font-size="14.00" fill="#000000">m17</text>
</g>
<!-- 16&#45;&gt;8 -->
<g id="edge20" class="edge">
<title>16&#45;&gt;8</title>
<path fill="none" stroke="#000000" d="M597.6883,-180.2673C598.2398,-199.7616 601.7477,-230.7098 617,-252 630.3625,-270.6523 652.3472,-283.958 671.36,-292.6942"/>
<polygon fill="#000000" stroke="#000000" points="680.6863,-296.7347 669.7215,-296.8885 676.0983,-294.747 671.5104,-292.7593 671.5104,-292.7593 671.5104,-292.7593 676.0983,-294.747 673.2993,-288.6302 680.6863,-296.7347 680.6863,-296.7347"/>
</g>
<!-- 16&#45;&gt;9 -->
<g id="edge21" class="edge">
<title>16&#45;&gt;9</title>
<path fill="none" stroke="#000000" d="M611.8788,-180.1686C618.2136,-188.4614 625.8384,-198.443 632.7926,-207.5467"/>
<polygon fill="#000000" stroke="#000000" points="638.9343,-215.5867 629.2878,-210.3717 635.8991,-211.6134 632.8639,-207.64 632.8639,-207.64 632.8639,-207.64 635.8991,-211.6134 636.4399,-204.9083 638.9343,-215.5867 638.9343,-215.5867"/>
</g>
<!-- 16&#45;&gt;14 -->
<g id="edge22" class="edge">
<title>16&#45;&gt;14</title>
<path fill="none" stroke="#000000" d="M570.84,-172.7507C546.4219,-182.5509 509.4255,-197.7308 469.2086,-216.0344"/>
<polygon fill="#000000" stroke="#000000" points="460.0326,-220.24 467.2484,-211.9827 464.5779,-218.1567 469.1233,-216.0735 469.1233,-216.0735 469.1233,-216.0735 464.5779,-218.1567 470.9982,-220.1643 460.0326,-220.24 460.0326,-220.24"/>
</g>
<!-- 17 -->
<g id="node18" class="node">
<title>17</title>
<polygon fill="none" stroke="#000000" points="274,-252 220,-252 220,-216 274,-216 274,-252"/>
<text text-anchor="middle" x="247" y="-230.3" font-family="Inconsolata, DejaVu Sans Mono, monospace" font-size="14.00" fill="#000000">m18</text>
</g>
<!-- 17&#45;&gt;1 -->
<g id="edge23" class="edge">
<title>17&#45;&gt;1</title>
<path fill="none" stroke="#000000" d="M247,-252.1686C247,-259.869 247,-269.0257 247,-277.5834"/>
<polygon fill="#000000" stroke="#000000" points="247,-287.5867 242.5001,-277.5867 247,-282.5867 247.0001,-277.5867 247.0001,-277.5867 247.0001,-277.5867 247,-282.5867 251.5001,-277.5868 247,-287.5867 247,-287.5867"/>
</g>
<!-- 18 -->
<g id="node19" class="node">
<title>18</title>
<polygon fill="none" stroke="#000000" points="228,-108 174,-108 174,-72 228,-72 228,-108"/>
<text text-anchor="middle" x="201" y="-86.3" font-family="Inconsolata, DejaVu Sans Mono, monospace" font-size="14.00" fill="#000000">m19</text>
</g>
<!-- 19 -->
<g id="node20" class="node">
<title>19</title>
<polygon fill="none" stroke="#000000" points="228,-180 174,-180 174,-144 228,-144 228,-180"/>
<text text-anchor="middle" x="201" y="-158.3" font-family="Inconsolata, DejaVu Sans Mono, monospace" font-size="14.00" fill="#000000">m20</text>
</g>
<!-- 18&#45;&gt;19 -->
<g id="edge24" class="edge">
<title>18&#45;&gt;19</title>
<path fill="none" stroke="#000000" d="M201,-108.1686C201,-115.869 201,-125.0257 201,-133.5834"/>
<polygon fill="#000000" stroke="#000000" points="201,-143.5867 196.5001,-133.5867 201,-138.5867 201.0001,-133.5867 201.0001,-133.5867 201.0001,-133.5867 201,-138.5867 205.5001,-133.5868 201,-143.5867 201,-143.5867"/>
</g>
<!-- 19&#45;&gt;1 -->
<g id="edge25" class="edge">
<title>19&#45;&gt;1</title>
<path fill="none" stroke="#000000" d="M200.5302,-180.158C200.6151,-198.752 202.3368,-228.2177 211,-252 214.4919,-261.586 220.0173,-271.1465 225.701,-279.5002"/>
<polygon fill="#000000" stroke="#000000" points="231.6025,-287.7193 222.1147,-282.221 228.6863,-283.6579 225.77,-279.5964 225.77,-279.5964 225.77,-279.5964 228.6863,-283.6579 229.4253,-276.9717 231.6025,-287.7193 231.6025,-287.7193"/>
</g>
<!-- 19&#45;&gt;2 -->
<g id="edge26" class="edge">
<title>19&#45;&gt;2</title>
<path fill="none" stroke="#000000" d="M184.8501,-180.1686C177.3283,-188.6306 168.2435,-198.8511 160.0196,-208.1029"/>
<polygon fill="#000000" stroke="#000000" points="153.3673,-215.5867 156.6477,-205.123 156.6892,-211.8497 160.011,-208.1126 160.011,-208.1126 160.011,-208.1126 156.6892,-211.8497 163.3744,-211.1023 153.3673,-215.5867 153.3673,-215.5867"/>
</g>
<!-- 19&#45;&gt;17 -->
<g id="edge27" class="edge">
<title>19&#45;&gt;17</title>
<path fill="none" stroke="#000000" d="M212.6077,-180.1686C217.7978,-188.2921 224.0232,-198.0363 229.7425,-206.9882"/>
<polygon fill="#000000" stroke="#000000" points="235.236,-215.5867 226.0599,-209.5825 232.544,-211.3732 229.852,-207.1598 229.852,-207.1598 229.852,-207.1598 232.544,-211.3732 233.6442,-204.737 235.236,-215.5867 235.236,-215.5867"/>
</g>
<!-- 20 -->
<g id="node21" class="node">
<title>20</title>
<polygon fill="none" stroke="#000000" points="1234,-108 1180,-108 1180,-72 1234,-72 1234,-108"/>
<text text-anchor="middle" x="1207" y="-86.3" font-family="Inconsolata, DejaVu Sans Mono, monospace" font-size="14.00" fill="#000000">m21</text>
</g>
<!-- 21 -->
<g id="node22" class="node">
<title>21</title>
<polygon fill="none" stroke="#000000" points="1162,-36 1108,-36 1108,0 1162,0 1162,-36"/>
<text text-anchor="middle" x="1135" y="-14.3" font-family="Inconsolata, DejaVu Sans Mono, monospace" font-size="14.00" fill="#000000">m22</text>
</g>
<!-- 21&#45;&gt;20 -->
<g id="edge28" class="edge">
<title>21&#45;&gt;20</title>
<path fill="none" stroke="#000000" d="M1153.1686,-36.1686C1161.7152,-44.7152 1172.0557,-55.0557 1181.3802,-64.3802"/>
<polygon fill="#000000" stroke="#000000" points="1188.5867,-71.5867 1178.3336,-67.6976 1185.0512,-68.0512 1181.5156,-64.5156 1181.5156,-64.5156 1181.5156,-64.5156 1185.0512,-68.0512 1184.6976,-61.3336 1188.5867,-71.5867 1188.5867,-71.5867"/>
</g>
<!-- 22 -->
<g id="node23" class="node">
<title>22</title>
<polygon fill="none" stroke="#000000" points="1234,-36 1180,-36 1180,0 1234,0 1234,-36"/>
<text text-anchor="middle" x="1207" y="-14.3" font-family="Inconsolata, DejaVu Sans Mono, monospace" font-size="14.00" fill="#000000">m23</text>
</g>
<!-- 22&#45;&gt;20 -->
<g id="edge29" class="edge">
<title>22&#45;&gt;20</title>
<path fill="none" stroke="#000000" d="M1207,-36.1686C1207,-43.869 1207,-53.0257 1207,-61.5834"/>
<polygon fill="#000000" stroke="#000000" points="1207,-71.5867 1202.5001,-61.5867 1207,-66.5867 1207.0001,-61.5867 1207.0001,-61.5867 1207.0001,-61.5867 1207,-66.5867 1211.5001,-61.5868 1207,-71.5867 1207,-71.5867"/>
</g>
<!-- 23 -->
<g id="node24" class="node">
<title>23</title>
<polygon fill="none" stroke="#000000" points="1306,-36 1252,-36 1252,0 1306,0 1306,-36"/>
<text text-anchor="middle" x="1279" y="-14.3" font-family="Inconsolata, DejaVu Sans Mono, monospace" font-size="14.00" fill="#000000">m24</text>
</g>
<!-- 23&#45;&gt;20 -->
<g id="edge30" class="edge">
<title>23&#45;&gt;20</title>
<path fill="none" stroke="#000000" d="M1260.8314,-36.1686C1252.2848,-44.7152 1241.9443,-55.0557 1232.6198,-64.3802"/>
<polygon fill="#000000" stroke="#000000" points="1225.4133,-71.5867 1229.3024,-61.3336 1228.9488,-68.0512 1232.4844,-64.5156 1232.4844,-64.5156 1232.4844,-64.5156 1228.9488,-68.0512 1235.6664,-67.6976 1225.4133,-71.5867 1225.4133,-71.5867"/>
</g>
<!-- 24 -->
<g id="node25" class="node">
<title>24</title>
<polygon fill="none" stroke="#000000" points="300,-180 246,-180 246,-144 300,-144 300,-180"/>
<text text-anchor="middle" x="273" y="-158.3" font-family="Inconsolata, DejaVu Sans Mono, monospace" font-size="14.00" fill="#000000">m25</text>
</g>
<!-- 24&#45;&gt;1 -->
<g id="edge31" class="edge">
<title>24&#45;&gt;1</title>
<path fill="none" stroke="#000000" d="M279.2392,-180.3201C284.5606,-198.7878 290.2892,-227.9255 283,-252 280.0436,-261.7645 274.6748,-271.3771 268.97,-279.7238"/>
<polygon fill="#000000" stroke="#000000" points="262.9905,-287.9169 265.2508,-277.1865 265.9381,-283.8782 268.8857,-279.8394 268.8857,-279.8394 268.8857,-279.8394 265.9381,-283.8782 272.5206,-282.4922 262.9905,-287.9169 262.9905,-287.9169"/>
</g>
<!-- 24&#45;&gt;17 -->
<g id="edge32" class="edge">
<title>24&#45;&gt;17</title>
<path fill="none" stroke="#000000" d="M266.4391,-180.1686C263.5973,-188.0383 260.2063,-197.4288 257.0581,-206.1467"/>
<polygon fill="#000000" stroke="#000000" points="253.6492,-215.5867 252.8133,-204.6528 255.3475,-210.884 257.0457,-206.1812 257.0457,-206.1812 257.0457,-206.1812 255.3475,-210.884 261.2782,-207.7096 253.6492,-215.5867 253.6492,-215.5867"/>
</g>
<!-- 25 -->
<g id="node26" class="node">
<title>25</title>
<polygon fill="none" stroke="#000000" points="372,-180 318,-180 318,-144 372,-144 372,-180"/>
<text text-anchor="middle" x="345" y="-158.3" font-family="Inconsolata, DejaVu Sans Mono, monospace" font-size="14.00" fill="#000000">m26</text>
</g>
<!-- 25&#45;&gt;8 -->
<g id="edge33" class="edge">
<title>25&#45;&gt;8</title>
<path fill="none" stroke="#000000" d="M372.2169,-176.4633C375.14,-177.7581 378.104,-178.9675 381,-180 449.6558,-204.4779 473.5403,-188.3961 541,-216 569.0798,-227.49 572.4877,-237.249 599,-252 622.7918,-265.2374 650.2644,-278.8372 671.6765,-289.0773"/>
<polygon fill="#000000" stroke="#000000" points="680.7526,-293.3905 669.7891,-293.1626 676.2366,-291.2443 671.7207,-289.0982 671.7207,-289.0982 671.7207,-289.0982 676.2366,-291.2443 673.6522,-285.0338 680.7526,-293.3905 680.7526,-293.3905"/>
</g>
<!-- 25&#45;&gt;17 -->
<g id="edge34" class="edge">
<title>25&#45;&gt;17</title>
<path fill="none" stroke="#000000" d="M320.2705,-180.1686C308.0838,-189.1221 293.2177,-200.0442 280.0688,-209.7045"/>
<polygon fill="#000000" stroke="#000000" points="271.7216,-215.8372 277.1161,-206.2899 275.751,-212.8768 279.7805,-209.9164 279.7805,-209.9164 279.7805,-209.9164 275.751,-212.8768 282.4448,-213.5428 271.7216,-215.8372 271.7216,-215.8372"/>
</g>
<!-- 26 -->
<g id="node27" class="node">
<title>26</title>
<polygon fill="none" stroke="#000000" points="444,-180 390,-180 390,-144 444,-144 444,-180"/>
<text text-anchor="middle" x="417" y="-158.3" font-family="Inconsolata, DejaVu Sans Mono, monospace" font-size="14.00" fill="#000000">m27</text>
</g>
<!-- 26&#45;&gt;1 -->
<g id="edge35" class="edge">
<title>26&#45;&gt;1</title>
<path fill="none" stroke="#000000" d="M395.4694,-180.2377C365.1961,-205.881 309.9675,-252.6628 276.0726,-281.3738"/>
<polygon fill="#000000" stroke="#000000" points="268.3558,-287.9104 273.0777,-278.0132 272.171,-284.6786 275.9863,-281.4469 275.9863,-281.4469 275.9863,-281.4469 272.171,-284.6786 278.8948,-284.8806 268.3558,-287.9104 268.3558,-287.9104"/>
</g>
<!-- 26&#45;&gt;8 -->
<g id="edge36" class="edge">
<title>26&#45;&gt;8</title>
<path fill="none" stroke="#000000" d="M404.9797,-180.0109C393.3821,-199.8619 379.8944,-231.6684 397,-252 431.5932,-293.1173 595.6858,-302.9277 670.5754,-305.2676"/>
<polygon fill="#000000" stroke="#000000" points="680.9514,-305.5614 670.828,-309.7765 675.9534,-305.4199 670.9554,-305.2783 670.9554,-305.2783 670.9554,-305.2783 675.9534,-305.4199 671.0829,-300.7801 680.9514,-305.5614 680.9514,-305.5614"/>
</g>
<!-- 26&#45;&gt;9 -->
<g id="edge37" class="edge">
<title>26&#45;&gt;9</title>
<path fill="none" stroke="#000000" d="M444.0722,-170.2593C486.4597,-183.1911 568.5659,-208.2404 616.254,-222.7894"/>
<polygon fill="#000000" stroke="#000000" points="625.881,-225.7264 615.0031,-227.1124 621.0986,-224.2673 616.3163,-222.8083 616.3163,-222.8083 616.3163,-222.8083 621.0986,-224.2673 617.6294,-218.5041 625.881,-225.7264 625.881,-225.7264"/>
</g>
<!-- 27 -->
<g id="node28" class="node">
<title>27</title>
<polygon fill="none" stroke="#000000" points="976,-252 922,-252 922,-216 976,-216 976,-252"/>
<text text-anchor="middle" x="949" y="-230.3" font-family="Inconsolata, DejaVu Sans Mono, monospace" font-size="14.00" fill="#000000">m28</text>
</g>
<!-- 28 -->
<g id="node29" class="node">
<title>28</title>
<polygon fill="none" stroke="#000000" points="993,-180 939,-180 939,-144 993,-144 993,-180"/>
<text text-anchor="middle" x="966" y="-158.3" font-family="Inconsolata, DejaVu Sans Mono, monospace" font-size="14.00" fill="#000000">m29</text>
</g>
<!-- 28&#45;&gt;27 -->
<g id="edge38" class="edge">
<title>28&#45;&gt;27</title>
<path fill="none" stroke="#000000" d="M961.7102,-180.1686C959.892,-187.869 957.7301,-197.0257 955.7095,-205.5834"/>
<polygon fill="#000000" stroke="#000000" points="953.3476,-215.5867 951.266,-204.8202 954.4966,-210.7205 955.6456,-205.8543 955.6456,-205.8543 955.6456,-205.8543 954.4966,-210.7205 960.0252,-206.8884 953.3476,-215.5867 953.3476,-215.5867"/>
</g>
<!-- 29 -->
<g id="node30" class="node">
<title>29</title>
<polygon fill="none" stroke="#000000" points="1378,-36 1324,-36 1324,0 1378,0 1378,-36"/>
<text text-anchor="middle" x="1351" y="-14.3" font-family="Inconsolata, DejaVu Sans Mono, monospace" font-size="14.00" fill="#000000">m30</text>
</g>
<!-- 30 -->
<g id="node31" class="node">
<title>30</title>
<polygon fill="none" stroke="#000000" points="921,-180 867,-180 867,-144 921,-144 921,-180"/>
<text text-anchor="middle" x="894" y="-158.3" font-family="Inconsolata, DejaVu Sans Mono, monospace" font-size="14.00" fill="#000000">m31</text>
</g>
<!-- 30&#45;&gt;1 -->
<g id="edge39" class="edge">
<title>30&#45;&gt;1</title>
<path fill="none" stroke="#000000" d="M888.106,-180.0938C880.1591,-201.2927 863.8253,-235.5994 837,-252 789.8875,-280.8039 406.6661,-299.2811 284.3644,-304.4887"/>
<polygon fill="#000000" stroke="#000000" points="274.3504,-304.9102 284.1523,-299.9936 279.346,-304.6999 284.3416,-304.4896 284.3416,-304.4896 284.3416,-304.4896 279.346,-304.6999 284.5309,-308.9856 274.3504,-304.9102 274.3504,-304.9102"/>
</g>
<!-- 30&#45;&gt;27 -->
<g id="edge40" class="edge">
<title>30&#45;&gt;27</title>
<path fill="none" stroke="#000000" d="M907.8788,-180.1686C914.2136,-188.4614 921.8384,-198.443 928.7926,-207.5467"/>
<polygon fill="#000000" stroke="#000000" points="934.9343,-215.5867 925.2878,-210.3717 931.8991,-211.6134 928.8639,-207.64 928.8639,-207.64 928.8639,-207.64 931.8991,-211.6134 932.4399,-204.9083 934.9343,-215.5867 934.9343,-215.5867"/>
</g>
<!-- 31 -->
<g id="node32" class="node">
<title>31</title>
<polygon fill="none" stroke="#000000" points="921,-108 867,-108 867,-72 921,-72 921,-108"/>
<text text-anchor="middle" x="894" y="-86.3" font-family="Inconsolata, DejaVu Sans Mono, monospace" font-size="14.00" fill="#000000">m32</text>
</g>
<!-- 31&#45;&gt;30 -->
<g id="edge41" class="edge">
<title>31&#45;&gt;30</title>
<path fill="none" stroke="#000000" d="M894,-108.1686C894,-115.869 894,-125.0257 894,-133.5834"/>
<polygon fill="#000000" stroke="#000000" points="894,-143.5867 889.5001,-133.5867 894,-138.5867 894.0001,-133.5867 894.0001,-133.5867 894.0001,-133.5867 894,-138.5867 898.5001,-133.5868 894,-143.5867 894,-143.5867"/>
</g>
<!-- 32 -->
<g id="node33" class="node">
<title>32</title>
<polygon fill="none" stroke="#000000" points="1086,-252 1032,-252 1032,-216 1086,-216 1086,-252"/>
<text text-anchor="middle" x="1059" y="-230.3" font-family="Inconsolata, DejaVu Sans Mono, monospace" font-size="14.00" fill="#000000">m33</text>
</g>
<!-- 33 -->
<g id="node34" class="node">
<title>33</title>
<polygon fill="none" stroke="#000000" points="1065,-180 1011,-180 1011,-144 1065,-144 1065,-180"/>
<text text-anchor="middle" x="1038" y="-158.3" font-family="Inconsolata, DejaVu Sans Mono, monospace" font-size="14.00" fill="#000000">m34</text>
</g>
<!-- 33&#45;&gt;8 -->
<g id="edge42" class="edge">
<title>33&#45;&gt;8</title>
<path fill="none" stroke="#000000" d="M1032.3344,-180.3574C1024.9246,-201.1471 1009.8719,-234.4099 985,-252 946.8391,-278.9884 811.7001,-295.743 745.3321,-302.5273"/>
<polygon fill="#000000" stroke="#000000" points="735.2963,-303.5305 744.7991,-298.058 740.2715,-303.0331 745.2467,-302.5357 745.2467,-302.5357 745.2467,-302.5357 740.2715,-303.0331 745.6944,-307.0134 735.2963,-303.5305 735.2963,-303.5305"/>
</g>
<!-- 33&#45;&gt;9 -->
<g id="edge43" class="edge">
<title>33&#45;&gt;9</title>
<path fill="none" stroke="#000000" d="M1010.8543,-176.6748C1007.9174,-177.9284 1004.9307,-179.0703 1002,-180 900.4462,-212.2169 870.2635,-199.5469 765,-216 740.085,-219.8943 712.0736,-224.3962 690.2967,-227.9235"/>
<polygon fill="#000000" stroke="#000000" points="680.1479,-229.5699 689.2982,-223.5266 685.0834,-228.7692 690.0188,-227.9685 690.0188,-227.9685 690.0188,-227.9685 685.0834,-228.7692 690.7395,-232.4105 680.1479,-229.5699 680.1479,-229.5699"/>
</g>
<!-- 33&#45;&gt;27 -->
<g id="edge44" class="edge">
<title>33&#45;&gt;27</title>
<path fill="none" stroke="#000000" d="M1015.5415,-180.1686C1004.5795,-189.0368 991.2301,-199.8363 979.3735,-209.4282"/>
<polygon fill="#000000" stroke="#000000" points="971.4513,-215.8372 976.3955,-206.0491 975.3385,-212.6924 979.2258,-209.5477 979.2258,-209.5477 979.2258,-209.5477 975.3385,-212.6924 982.0561,-213.0462 971.4513,-215.8372 971.4513,-215.8372"/>
</g>
<!-- 33&#45;&gt;32 -->
<g id="edge45" class="edge">
<title>33&#45;&gt;32</title>
<path fill="none" stroke="#000000" d="M1043.2992,-180.1686C1045.5698,-187.9537 1048.2746,-197.2271 1050.794,-205.8653"/>
<polygon fill="#000000" stroke="#000000" points="1053.6295,-215.5867 1046.5094,-207.2468 1052.2294,-210.7867 1050.8294,-205.9867 1050.8294,-205.9867 1050.8294,-205.9867 1052.2294,-210.7867 1055.1494,-204.7267 1053.6295,-215.5867 1053.6295,-215.5867"/>
</g>
<!-- 34 -->
<g id="node35" class="node">
<title>34</title>
<polygon fill="none" stroke="#000000" points="849,-180 795,-180 795,-144 849,-144 849,-180"/>
<text text-anchor="middle" x="822" y="-158.3" font-family="Inconsolata, DejaVu Sans Mono, monospace" font-size="14.00" fill="#000000">m35</text>
</g>
<!-- 34&#45;&gt;8 -->
<g id="edge46" class="edge">
<title>34&#45;&gt;8</title>
<path fill="none" stroke="#000000" d="M831.9957,-180.1367C841.1885,-199.5194 851.3924,-230.3727 837,-252 816.7859,-282.3754 775.8498,-295.6969 745.4867,-301.5193"/>
<polygon fill="#000000" stroke="#000000" points="735.2392,-303.2817 744.3318,-297.1518 740.1669,-302.4342 745.0945,-301.5867 745.0945,-301.5867 745.0945,-301.5867 740.1669,-302.4342 745.8573,-306.0216 735.2392,-303.2817 735.2392,-303.2817"/>
</g>
<!-- 34&#45;&gt;9 -->
<g id="edge47" class="edge">
<title>34&#45;&gt;9</title>
<path fill="none" stroke="#000000" d="M794.9819,-175.7918C791.9675,-177.246 788.9288,-178.6756 786,-180 753.7431,-194.5859 716.3323,-209.6117 689.4197,-220.0981"/>
<polygon fill="#000000" stroke="#000000" points="680.0086,-223.7468 687.7056,-215.9362 684.6704,-221.9394 689.3323,-220.1319 689.3323,-220.1319 689.3323,-220.1319 684.6704,-221.9394 690.9591,-224.3276 680.0086,-223.7468 680.0086,-223.7468"/>
</g>
<!-- 34&#45;&gt;27 -->
<g id="edge48" class="edge">
<title>34&#45;&gt;27</title>
<path fill="none" stroke="#000000" d="M849.2447,-177.4458C867.8268,-187.9805 892.638,-202.0468 912.8672,-213.5152"/>
<polygon fill="#000000" stroke="#000000" points="921.8004,-218.5797 910.8818,-217.5625 917.4507,-216.1138 913.1011,-213.6478 913.1011,-213.6478 913.1011,-213.6478 917.4507,-216.1138 915.3205,-209.7332 921.8004,-218.5797 921.8004,-218.5797"/>
</g>
<!-- 35 -->
<g id="node36" class="node">
<title>35</title>
<polygon fill="none" stroke="#000000" points="1450,-36 1396,-36 1396,0 1450,0 1450,-36"/>
<text text-anchor="middle" x="1423" y="-14.3" font-family="Inconsolata, DejaVu Sans Mono, monospace" font-size="14.00" fill="#000000">m36</text>
</g>
</g>
</svg>
