<?xml version="1.0" encoding="UTF-8" standalone="no"?>
<!DOCTYPE svg PUBLIC "-//W3C//DTD SVG 1.1//EN"
 "http://www.w3.org/Graphics/SVG/1.1/DTD/svg11.dtd">
<!-- Generated by graphviz version 2.40.1 (20161225.0304)
 -->
<!-- Title: packages Pages: 1 -->
<svg width="1106pt" height="332pt"
 viewBox="0.00 0.00 1106.00 332.00" xmlns="http://www.w3.org/2000/svg" xmlns:xlink="http://www.w3.org/1999/xlink">
<g id="graph0" class="graph" transform="scale(1 1) rotate(0) translate(4 328)">
<title>packages</title>
<polygon fill="#ffffff" stroke="transparent" points="-4,4 -4,-328 1102,-328 1102,4 -4,4"/>
<!-- 0 -->
<g id="node1" class="node">
<title>0</title>
<polygon fill="none" stroke="#000000" points="666,-36 612,-36 612,0 666,0 666,-36"/>
<text text-anchor="middle" x="639" y="-14.3" font-family="Inconsolata, DejaVu Sans Mono, monospace" font-size="14.00" fill="#000000">m01</text>
</g>
<!-- 1 -->
<g id="node2" class="node">
<title>1</title>
<polygon fill="none" stroke="#000000" points="263,-324 209,-324 209,-288 263,-288 263,-324"/>
<text text-anchor="middle" x="236" y="-302.3" font-family="Inconsolata, DejaVu Sans Mono, monospace" font-size="14.00" fill="#000000">m02</text>
</g>
<!-- 2 -->
<g id="node3" class="node">
<title>2</title>
<polygon fill="none" stroke="#000000" points="208,-252 154,-252 154,-216 208,-216 208,-252"/>
<text text-anchor="middle" x="181" y="-230.3" font-family="Inconsolata, DejaVu Sans Mono, monospace" font-size="14.00" fill="#000000">m03</text>
</g>
<!-- 2&#45;&gt;1 -->
<g id="edge1" class="edge">
<title>2&#45;&gt;1</title>
<path fill="none" stroke="#000000" d="M194.8788,-252.1686C201.2136,-260.4614 208.8384,-270.443 215.7926,-279.5467"/>
<polygon fill="#000000" stroke="#000000" points="221.9343,-287.5867 212.2878,-282.3717 218.8991,-283.6134 215.8639,-279.64 215.8639,-279.64 215.8639,-279.64 218.8991,-283.6134 219.4399,-276.9083 221.9343,-287.5867 221.9343,-287.5867"/>
</g>
<!-- 3 -->
<g id="node4" class="node">
<title>3</title>
<polygon fill="none" stroke="#000000" points="208,-180 154,-180 154,-144 208,-144 208,-180"/>
<text text-anchor="middle" x="181" y="-158.3" font-family="Inconsolata, DejaVu Sans Mono, monospace" font-size="14.00" fill="#000000">m04</text>
</g>
<!-- 3&#45;&gt;2 -->
<g id="edge2" class="edge">
<title>3&#45;&gt;2</title>
<path fill="none" stroke="#000000" d="M181,-180.1686C181,-187.869 181,-197.0257 181,-205.5834"/>
<polygon fill="#000000" stroke="#000000" points="181,-215.5867 176.5001,-205.5867 181,-210.5867 181.0001,-205.5867 181.0001,-205.5867 181.0001,-205.5867 181,-210.5867 185.5001,-205.5868 181,-215.5867 181,-215.5867"/>
</g>
<!-- 4 -->
<g id="node5" class="node">
<title>4</title>
<polygon fill="none" stroke="#000000" points="318,-252 264,-252 264,-216 318,-216 318,-252"/>
<text text-anchor="middle" x="291" y="-230.3" font-family="Inconsolata, DejaVu Sans Mono, monospace" font-size="14.00" fill="#000000">m05</text>
</g>
<!-- 4&#45;&gt;1 -->
<g id="edge3" class="edge">
<title>4&#45;&gt;1</title>
<path fill="none" stroke="#000000" d="M277.1212,-252.1686C270.7864,-260.4614 263.1616,-270.443 256.2074,-279.5467"/>
<polygon fill="#000000" stroke="#000000" points="250.0657,-287.5867 252.5601,-276.9083 253.1009,-283.6134 256.1361,-279.64 256.1361,-279.64 256.1361,-279.64 253.1009,-283.6134 259.7122,-282.3717 250.0657,-287.5867 250.0657,-287.5867"/>
</g>
<!-- 5 -->
<g id="node6" class="node">
<title>5</title>
<polygon fill="none" stroke="#000000" points="280,-180 226,-180 226,-144 280,-144 280,-180"/>
<text text-anchor="middle" x="253" y="-158.3" font-family="Inconsolata, DejaVu Sans Mono, monospace" font-size="14.00" fill="#000000">m06</text>
</g>
<!-- 5&#45;&gt;1 -->
<g id="edge4" class="edge">
<title>5&#45;&gt;1</title>
<path fill="none" stroke="#000000" d="M250.8469,-180.2377C247.9473,-204.799 242.7584,-248.7526 239.3474,-277.6459"/>
<polygon fill="#000000" stroke="#000000" points="238.1356,-287.9104 234.8391,-277.4517 238.7218,-282.9449 239.3081,-277.9793 239.3081,-277.9793 239.3081,-277.9793 238.7218,-282.9449 243.777,-278.507 238.1356,-287.9104 238.1356,-287.9104"/>
</g>
<!-- 5&#45;&gt;2 -->
<g id="edge5" class="edge">
<title>5&#45;&gt;2</title>
<path fill="none" stroke="#000000" d="M234.8314,-180.1686C226.2848,-188.7152 215.9443,-199.0557 206.6198,-208.3802"/>
<polygon fill="#000000" stroke="#000000" points="199.4133,-215.5867 203.3024,-205.3336 202.9488,-212.0512 206.4844,-208.5156 206.4844,-208.5156 206.4844,-208.5156 202.9488,-212.0512 209.6664,-211.6976 199.4133,-215.5867 199.4133,-215.5867"/>
</g>
<!-- 5&#45;&gt;4 -->
<g id="edge6" class="edge">
<title>5&#45;&gt;4</title>
<path fill="none" stroke="#000000" d="M262.589,-180.1686C266.8317,-188.2075 271.9121,-197.8334 276.596,-206.7082"/>
<polygon fill="#000000" stroke="#000000" points="281.2819,-215.5867 272.6345,-208.8433 278.9481,-211.1648 276.6142,-206.7429 276.6142,-206.7429 276.6142,-206.7429 278.9481,-211.1648 280.594,-204.6424 281.2819,-215.5867 281.2819,-215.5867"/>
</g>
<!-- 6 -->
<g id="node7" class="node">
<title>6</title>
<polygon fill="none" stroke="#000000" points="810,-36 756,-36 756,0 810,0 810,-36"/>
<text text-anchor="middle" x="783" y="-14.3" font-family="Inconsolata, DejaVu Sans Mono, monospace" font-size="14.00" fill="#000000">m07</text>
</g>
<!-- 7 -->
<g id="node8" class="node">
<title>7</title>
<polygon fill="none" stroke="#000000" points="504,-252 450,-252 450,-216 504,-216 504,-252"/>
<text text-anchor="middle" x="477" y="-230.3" font-family="Inconsolata, DejaVu Sans Mono, monospace" font-size="14.00" fill="#000000">m08</text>
</g>
<!-- 8 -->
<g id="node9" class="node">
<title>8</title>
<polygon fill="none" stroke="#000000" points="741,-324 687,-324 687,-288 741,-288 741,-324"/>
<text text-anchor="middle" x="714" y="-302.3" font-family="Inconsolata, DejaVu Sans Mono, monospace" font-size="14.00" fill="#000000">m09</text>
</g>
<!-- 9 -->
<g id="node10" class="node">
<title>9</title>
<polygon fill="none" stroke="#000000" points="614,-252 560,-252 560,-216 614,-216 614,-252"/>
<text text-anchor="middle" x="587" y="-230.3" font-family="Inconsolata, DejaVu Sans Mono, monospace" font-size="14.00" fill="#000000">m10</text>
</g>
<!-- 9&#45;&gt;1 -->
<g id="edge7" class="edge">
<title>9&#45;&gt;1</title>
<path fill="none" stroke="#000000" d="M559.6584,-240.9691C545.7274,-244.439 528.499,-248.6062 513,-252 427.5223,-270.7173 326.4953,-289.6003 273.2156,-299.3083"/>
<polygon fill="#000000" stroke="#000000" points="263.215,-301.1248 272.2498,-294.91 268.1345,-300.2312 273.0541,-299.3375 273.0541,-299.3375 273.0541,-299.3375 268.1345,-300.2312 273.8583,-303.7651 263.215,-301.1248 263.215,-301.1248"/>
</g>
<!-- 9&#45;&gt;8 -->
<g id="edge8" class="edge">
<title>9&#45;&gt;8</title>
<path fill="none" stroke="#000000" d="M614.2447,-249.4458C632.8268,-259.9805 657.638,-274.0468 677.8672,-285.5152"/>
<polygon fill="#000000" stroke="#000000" points="686.8004,-290.5797 675.8818,-289.5625 682.4507,-288.1138 678.1011,-285.6478 678.1011,-285.6478 678.1011,-285.6478 682.4507,-288.1138 680.3205,-281.7332 686.8004,-290.5797 686.8004,-290.5797"/>
</g>
<!-- 10 -->
<g id="node11" class="node">
<title>10</title>
<polygon fill="none" stroke="#000000" points="614,-180 560,-180 560,-144 614,-144 614,-180"/>
<text text-anchor="middle" x="587" y="-158.3" font-family="Inconsolata, DejaVu Sans Mono, monospace" font-size="14.00" fill="#000000">m11</text>
</g>
<!-- 10&#45;&gt;7 -->
<g id="edge9" class="edge">
<title>10&#45;&gt;7</title>
<path fill="none" stroke="#000000" d="M559.809,-179.7978C545.6622,-189.0575 528.1843,-200.4975 512.937,-210.4776"/>
<polygon fill="#000000" stroke="#000000" points="504.2594,-216.1575 510.162,-206.9157 508.443,-213.4191 512.6265,-210.6808 512.6265,-210.6808 512.6265,-210.6808 508.443,-213.4191 515.091,-214.446 504.2594,-216.1575 504.2594,-216.1575"/>
</g>
<!-- 10&#45;&gt;8 -->
<g id="edge10" class="edge">
<title>10&#45;&gt;8</title>
<path fill="none" stroke="#000000" d="M569.8405,-180.1984C553.9266,-199.3556 534.9405,-229.7619 551,-252 565.9055,-272.6402 633.4841,-289.777 676.8118,-298.8969"/>
<polygon fill="#000000" stroke="#000000" points="686.7251,-300.9334 676.0241,-303.329 681.8274,-299.9272 676.9297,-298.921 676.9297,-298.921 676.9297,-298.921 681.8274,-299.9272 677.8352,-294.5131 686.7251,-300.9334 686.7251,-300.9334"/>
</g>
<!-- 10&#45;&gt;9 -->
<g id="edge11" class="edge">
<title>10&#45;&gt;9</title>
<path fill="none" stroke="#000000" d="M587,-180.1686C587,-187.869 587,-197.0257 587,-205.5834"/>
<polygon fill="#000000" stroke="#000000" points="587,-215.5867 582.5001,-205.5867 587,-210.5867 587.0001,-205.5867 587.0001,-205.5867 587.0001,-205.5867 587,-210.5867 591.5001,-205.5868 587,-215.5867 587,-215.5867"/>
</g>
<!-- 11 -->
<g id="node12" class="node">
<title>11</title>
<polygon fill="none" stroke="#000000" points="738,-108 684,-108 684,-72 738,-72 738,-108"/>
<text text-anchor="middle" x="711" y="-86.3" font-family="Inconsolata, DejaVu Sans Mono, monospace" font-size="14.00" fill="#000000">m12</text>
</g>
<!-- 11&#45;&gt;8 -->
<g id="edge12" class="edge">
<title>11&#45;&gt;8</title>
<path fill="none" stroke="#000000" d="M712.2812,-108.4838C712.9399,-118.9076 713.6717,-132.1738 714,-144 715.297,-190.7288 714.9098,-245.0688 714.4787,-277.4385"/>
<polygon fill="#000000" stroke="#000000" points="714.3331,-287.5311 709.9779,-277.4672 714.4053,-282.5316 714.4774,-277.5321 714.4774,-277.5321 714.4774,-277.5321 714.4053,-282.5316 718.9769,-277.597 714.3331,-287.5311 714.3331,-287.5311"/>
</g>
<!-- 11&#45;&gt;10 -->
<g id="edge13" class="edge">
<title>11&#45;&gt;10</title>
<path fill="none" stroke="#000000" d="M683.7877,-105.8007C665.9396,-116.1641 642.4049,-129.8294 623.012,-141.0898"/>
<polygon fill="#000000" stroke="#000000" points="614.1488,-146.2362 620.5371,-137.3232 618.4728,-143.7255 622.7967,-141.2147 622.7967,-141.2147 622.7967,-141.2147 618.4728,-143.7255 625.0564,-145.1063 614.1488,-146.2362 614.1488,-146.2362"/>
</g>
<!-- 12 -->
<g id="node13" class="node">
<title>12</title>
<polygon fill="none" stroke="#000000" points="872,-252 818,-252 818,-216 872,-216 872,-252"/>
<text text-anchor="middle" x="845" y="-230.3" font-family="Inconsolata, DejaVu Sans Mono, monospace" font-size="14.00" fill="#000000">m13</text>
</g>
<!-- 12&#45;&gt;8 -->
<g id="edge14" class="edge">
<title>12&#45;&gt;8</title>
<path fill="none" stroke="#000000" d="M817.8567,-248.9184C798.1842,-259.7308 771.3843,-274.4605 749.9364,-286.2487"/>
<polygon fill="#000000" stroke="#000000" points="741.1085,-291.1007 747.7046,-282.3404 745.4903,-288.6923 749.8721,-286.284 749.8721,-286.284 749.8721,-286.284 745.4903,-288.6923 752.0396,-290.2276 741.1085,-291.1007 741.1085,-291.1007"/>
</g>
<!-- 13 -->
<g id="node14" class="node">
<title>13</title>
<polygon fill="none" stroke="#000000" points="738,-36 684,-36 684,0 738,0 738,-36"/>
<text text-anchor="middle" x="711" y="-14.3" font-family="Inconsolata, DejaVu Sans Mono, monospace" font-size="14.00" fill="#000000">m14</text>
</g>
<!-- 13&#45;&gt;8 -->
<g id="edge15" class="edge">
<title>13&#45;&gt;8</title>
<path fill="none" stroke="#000000" d="M726.9905,-36.0831C734.6538,-45.9629 743.0166,-58.8437 747,-72 768.9493,-144.4937 742.0775,-234.1267 725.3857,-278.4756"/>
<polygon fill="#000000" stroke="#000000" points="721.6982,-287.9854 721.1179,-277.0349 723.5059,-283.3236 725.3135,-278.6617 725.3135,-278.6617 725.3135,-278.6617 723.5059,-283.3236 729.5092,-280.2886 721.6982,-287.9854 721.6982,-287.9854"/>
</g>
<!-- 13&#45;&gt;10 -->
<g id="edge16" class="edge">
<title>13&#45;&gt;10</title>
<path fill="none" stroke="#000000" d="M695.2953,-36.2377C673.4931,-61.5564 633.9462,-107.4818 609.1521,-136.2749"/>
<polygon fill="#000000" stroke="#000000" points="602.5772,-143.9104 605.6925,-133.3963 605.8398,-140.1215 609.1024,-136.3327 609.1024,-136.3327 609.1024,-136.3327 605.8398,-140.1215 612.5124,-139.269 602.5772,-143.9104 602.5772,-143.9104"/>
</g>
<!-- 13&#45;&gt;11 -->
<g id="edge17" class="edge">
<title>13&#45;&gt;11</title>
<path fill="none" stroke="#000000" d="M711,-36.1686C711,-43.869 711,-53.0257 711,-61.5834"/>
<polygon fill="#000000" stroke="#000000" points="711,-71.5867 706.5001,-61.5867 711,-66.5867 711.0001,-61.5867 711.0001,-61.5867 711.0001,-61.5867 711,-66.5867 715.5001,-61.5868 711,-71.5867 711,-71.5867"/>
</g>
<!-- 14 -->
<g id="node15" class="node">
<title>14</title>
<polygon fill="none" stroke="#000000" points="982,-252 928,-252 928,-216 982,-216 982,-252"/>
<text text-anchor="middle" x="955" y="-230.3" font-family="Inconsolata, DejaVu Sans Mono, monospace" font-size="14.00" fill="#000000">m15</text>
</g>
<!-- 15 -->
<g id="node16" class="node">
<title>15</title>
<polygon fill="none" stroke="#000000" points="705,-180 651,-180 651,-144 705,-144 705,-180"/>
<text text-anchor="middle" x="678" y="-158.3" font-family="Inconsolata, DejaVu Sans Mono, monospace" font-size="14.00" fill="#000000">m16</text>
</g>
<!-- 15&#45;&gt;8 -->
<g id="edge18" class="edge">
<title>15&#45;&gt;8</title>
<path fill="none" stroke="#000000" d="M684.2684,-180.3657C687.6906,-190.7526 691.8579,-204.0212 695,-216 700.3939,-236.5636 705.3159,-260.0781 708.7982,-277.9136"/>
<polygon fill="#000000" stroke="#000000" points="710.7232,-287.9501 704.42,-278.9768 709.7813,-283.0396 708.8395,-278.1291 708.8395,-278.1291 708.8395,-278.1291 709.7813,-283.0396 713.2589,-277.2814 710.7232,-287.9501 710.7232,-287.9501"/>
</g>
<!-- 15&#45;&gt;9 -->
<g id="edge19" class="edge">
<title>15&#45;&gt;9</title>
<path fill="none" stroke="#000000" d="M655.0369,-180.1686C643.8285,-189.0368 630.1791,-199.8363 618.0561,-209.4282"/>
<polygon fill="#000000" stroke="#000000" points="609.9558,-215.8372 615.0058,-206.1033 613.8769,-212.7347 617.798,-209.6323 617.798,-209.6323 617.798,-209.6323 613.8769,-212.7347 620.5902,-213.1613 609.9558,-215.8372 609.9558,-215.8372"/>
</g>
<!-- 16 -->
<g id="node17" class="node">
<title>16</title>
<polygon fill="none" stroke="#000000" points="927,-180 873,-180 873,-144 927,-144 927,-180"/>
<text text-anchor="middle" x="900" y="-158.3" font-family="Inconsolata, DejaVu Sans Mono, monospace" font-size="14.00" fill="#000000">m17</text>
</g>
<!-- 16&#45;&gt;8 -->
<g id="edge20" class="edge">
<title>16&#45;&gt;8</title>
<path fill="none" stroke="#000000" d="M901.1834,-180.2452C901.4613,-200.3061 898.7384,-232.3001 881,-252 863.5395,-271.3912 794.6944,-289.006 751.0346,-298.542"/>
<polygon fill="#000000" stroke="#000000" points="741.0592,-300.6764 749.8963,-294.1836 745.9486,-299.6302 750.8379,-298.584 750.8379,-298.584 750.8379,-298.584 745.9486,-299.6302 751.7795,-302.9844 741.0592,-300.6764 741.0592,-300.6764"/>
</g>
<!-- 16&#45;&gt;9 -->
<g id="edge21" class="edge">
<title>16&#45;&gt;9</title>
<path fill="none" stroke="#000000" d="M872.6289,-164.8439C823.8558,-170.4353 718.8675,-184.8446 623.9301,-216.1638"/>
<polygon fill="#000000" stroke="#000000" points="614.187,-219.4508 622.2238,-211.9902 618.9246,-217.8524 623.6623,-216.2541 623.6623,-216.2541 623.6623,-216.2541 618.9246,-217.8524 625.1008,-220.518 614.187,-219.4508 614.187,-219.4508"/>
</g>
<!-- 16&#45;&gt;14 -->
<g id="edge22" class="edge">
<title>16&#45;&gt;14</title>
<path fill="none" stroke="#000000" d="M913.8788,-180.1686C920.2136,-188.4614 927.8384,-198.443 934.7926,-207.5467"/>
<polygon fill="#000000" stroke="#000000" points="940.9343,-215.5867 931.2878,-210.3717 937.8991,-211.6134 934.8639,-207.64 934.8639,-207.64 934.8639,-207.64 937.8991,-211.6134 938.4399,-204.9083 940.9343,-215.5867 940.9343,-215.5867"/>
</g>
<!-- 17 -->
<g id="node18" class="node">
<title>17</title>
<polygon fill="none" stroke="#000000" points="98,-252 44,-252 44,-216 98,-216 98,-252"/>
<text text-anchor="middle" x="71" y="-230.3" font-family="Inconsolata, DejaVu Sans Mono, monospace" font-size="14.00" fill="#000000">m18</text>
</g>
<!-- 17&#45;&gt;1 -->
<g id="edge23" class="edge">
<title>17&#45;&gt;1</title>
<path fill="none" stroke="#000000" d="M98.3421,-246.0173C102.902,-248.0176 107.5839,-250.0691 112,-252 141.4386,-264.8721 174.8341,-279.4117 199.5456,-290.1585"/>
<polygon fill="#000000" stroke="#000000" points="208.8978,-294.225 197.9328,-294.3642 204.3125,-292.2312 199.7272,-290.2375 199.7272,-290.2375 199.7272,-290.2375 204.3125,-292.2312 201.5216,-286.1107 208.8978,-294.225 208.8978,-294.225"/>
</g>
<!-- 18 -->
<g id="node19" class="node">
<title>18</title>
<polygon fill="none" stroke="#000000" points="136,-108 82,-108 82,-72 136,-72 136,-108"/>
<text text-anchor="middle" x="109" y="-86.3" font-family="Inconsolata, DejaVu Sans Mono, monospace" font-size="14.00" fill="#000000">m19</text>
</g>
<!-- 19 -->
<g id="node20" class="node">
<title>19</title>
<polygon fill="none" stroke="#000000" points="136,-180 82,-180 82,-144 136,-144 136,-180"/>
<text text-anchor="middle" x="109" y="-158.3" font-family="Inconsolata, DejaVu Sans Mono, monospace" font-size="14.00" fill="#000000">m20</text>
</g>
<!-- 18&#45;&gt;19 -->
<g id="edge24" class="edge">
<title>18&#45;&gt;19</title>
<path fill="none" stroke="#000000" d="M109,-108.1686C109,-115.869 109,-125.0257 109,-133.5834"/>
<polygon fill="#000000" stroke="#000000" points="109,-143.5867 104.5001,-133.5867 109,-138.5867 109.0001,-133.5867 109.0001,-133.5867 109.0001,-133.5867 109,-138.5867 113.5001,-133.5868 109,-143.5867 109,-143.5867"/>
</g>
<!-- 19&#45;&gt;1 -->
<g id="edge25" class="edge">
<title>19&#45;&gt;1</title>
<path fill="none" stroke="#000000" d="M112.5686,-180.0347C117.209,-199.6142 126.9452,-230.9039 145,-252 159.6476,-269.115 181.1422,-282.2237 199.5634,-291.2372"/>
<polygon fill="#000000" stroke="#000000" points="208.8639,-295.577 197.899,-295.4263 204.3329,-293.4627 199.8019,-291.3484 199.8019,-291.3484 199.8019,-291.3484 204.3329,-293.4627 201.7047,-287.2705 208.8639,-295.577 208.8639,-295.577"/>
</g>
<!-- 19&#45;&gt;2 -->
<g id="edge26" class="edge">
<title>19&#45;&gt;2</title>
<path fill="none" stroke="#000000" d="M127.1686,-180.1686C135.7152,-188.7152 146.0557,-199.0557 155.3802,-208.3802"/>
<polygon fill="#000000" stroke="#000000" points="162.5867,-215.5867 152.3336,-211.6976 159.0512,-212.0512 155.5156,-208.5156 155.5156,-208.5156 155.5156,-208.5156 159.0512,-212.0512 158.6976,-205.3336 162.5867,-215.5867 162.5867,-215.5867"/>
</g>
<!-- 19&#45;&gt;17 -->
<g id="edge27" class="edge">
<title>19&#45;&gt;17</title>
<path fill="none" stroke="#000000" d="M99.411,-180.1686C95.1683,-188.2075 90.0879,-197.8334 85.404,-206.7082"/>
<polygon fill="#000000" stroke="#000000" points="80.7181,-215.5867 81.406,-204.6424 83.0519,-211.1648 85.3858,-206.7429 85.3858,-206.7429 85.3858,-206.7429 83.0519,-211.1648 89.3655,-208.8433 80.7181,-215.5867 80.7181,-215.5867"/>
</g>
<!-- 20 -->
<g id="node21" class="node">
<title>20</title>
<polygon fill="none" stroke="#000000" points="954,-108 900,-108 900,-72 954,-72 954,-108"/>
<text text-anchor="middle" x="927" y="-86.3" font-family="Inconsolata, DejaVu Sans Mono, monospace" font-size="14.00" fill="#000000">m21</text>
</g>
<!-- 21 -->
<g id="node22" class="node">
<title>21</title>
<polygon fill="none" stroke="#000000" points="882,-36 828,-36 828,0 882,0 882,-36"/>
<text text-anchor="middle" x="855" y="-14.3" font-family="Inconsolata, DejaVu Sans Mono, monospace" font-size="14.00" fill="#000000">m22</text>
</g>
<!-- 21&#45;&gt;20 -->
<g id="edge28" class="edge">
<title>21&#45;&gt;20</title>
<path fill="none" stroke="#000000" d="M873.1686,-36.1686C881.7152,-44.7152 892.0557,-55.0557 901.3802,-64.3802"/>
<polygon fill="#000000" stroke="#000000" points="908.5867,-71.5867 898.3336,-67.6976 905.0512,-68.0512 901.5156,-64.5156 901.5156,-64.5156 901.5156,-64.5156 905.0512,-68.0512 904.6976,-61.3336 908.5867,-71.5867 908.5867,-71.5867"/>
</g>
<!-- 22 -->
<g id="node23" class="node">
<title>22</title>
<polygon fill="none" stroke="#000000" points="954,-36 900,-36 900,0 954,0 954,-36"/>
<text text-anchor="middle" x="927" y="-14.3" font-family="Inconsolata, DejaVu Sans Mono, monospace" font-size="14.00" fill="#000000">m23</text>
</g>
<!-- 22&#45;&gt;20 -->
<g id="edge29" class="edge">
<title>22&#45;&gt;20</title>
<path fill="none" stroke="#000000" d="M927,-36.1686C927,-43.869 927,-53.0257 927,-61.5834"/>
<polygon fill="#000000" stroke="#000000" points="927,-71.5867 922.5001,-61.5867 927,-66.5867 927.0001,-61.5867 927.0001,-61.5867 927.0001,-61.5867 927,-66.5867 931.5001,-61.5868 927,-71.5867 927,-71.5867"/>
</g>
<!-- 23 -->
<g id="node24" class="node">
<title>23</title>
<polygon fill="none" stroke="#000000" points="1026,-36 972,-36 972,0 1026,0 1026,-36"/>
<text text-anchor="middle" x="999" y="-14.3" font-family="Inconsolata, DejaVu Sans Mono, monospace" font-size="14.00" fill="#000000">m24</text>
</g>
<!-- 23&#45;&gt;20 -->
<g id="edge30" class="edge">
<title>23&#45;&gt;20</title>
<path fill="none" stroke="#000000" d="M980.8314,-36.1686C972.2848,-44.7152 961.9443,-55.0557 952.6198,-64.3802"/>
<polygon fill="#000000" stroke="#000000" points="945.4133,-71.5867 949.3024,-61.3336 948.9488,-68.0512 952.4844,-64.5156 952.4844,-64.5156 952.4844,-64.5156 948.9488,-68.0512 955.6664,-67.6976 945.4133,-71.5867 945.4133,-71.5867"/>
</g>
<!-- 24 -->
<g id="node25" class="node">
<title>24</title>
<polygon fill="none" stroke="#000000" points="54,-180 0,-180 0,-144 54,-144 54,-180"/>
<text text-anchor="middle" x="27" y="-158.3" font-family="Inconsolata, DejaVu Sans Mono, monospace" font-size="14.00" fill="#000000">m25</text>
</g>
<!-- 24&#45;&gt;1 -->
<g id="edge31" class="edge">
<title>24&#45;&gt;1</title>
<path fill="none" stroke="#000000" d="M23.0621,-180.1556C19.8622,-200.1362 18.2547,-232.0585 35,-252 55.8689,-276.8522 146.4098,-293.4144 198.5762,-301.0848"/>
<polygon fill="#000000" stroke="#000000" points="208.7762,-302.5433 198.2399,-305.5824 203.8266,-301.8355 198.8769,-301.1277 198.8769,-301.1277 198.8769,-301.1277 203.8266,-301.8355 199.5139,-296.673 208.7762,-302.5433 208.7762,-302.5433"/>
</g>
<!-- 24&#45;&gt;17 -->
<g id="edge32" class="edge">
<title>24&#45;&gt;17</title>
<path fill="none" stroke="#000000" d="M38.1031,-180.1686C43.0674,-188.2921 49.0222,-198.0363 54.4928,-206.9882"/>
<polygon fill="#000000" stroke="#000000" points="59.7474,-215.5867 50.6931,-209.4004 57.1402,-211.3203 54.5329,-207.0539 54.5329,-207.0539 54.5329,-207.0539 57.1402,-211.3203 58.3727,-204.7074 59.7474,-215.5867 59.7474,-215.5867"/>
</g>
<!-- 25 -->
<g id="node26" class="node">
<title>25</title>
<polygon fill="none" stroke="#000000" points="365,-180 311,-180 311,-144 365,-144 365,-180"/>
<text text-anchor="middle" x="338" y="-158.3" font-family="Inconsolata, DejaVu Sans Mono, monospace" font-size="14.00" fill="#000000">m26</text>
</g>
<!-- 25&#45;&gt;8 -->
<g id="edge33" class="edge">
<title>25&#45;&gt;8</title>
<path fill="none" stroke="#000000" d="M349.1527,-180.111C363.035,-200.993 388.7667,-234.6619 420,-252 463.6973,-276.2571 608.0711,-294.5815 676.8883,-302.1689"/>
<polygon fill="#000000" stroke="#000000" points="686.8652,-303.2519 676.438,-306.6464 681.8944,-302.7123 676.9236,-302.1727 676.9236,-302.1727 676.9236,-302.1727 681.8944,-302.7123 677.4093,-297.699 686.8652,-303.2519 686.8652,-303.2519"/>
</g>
<!-- 25&#45;&gt;17 -->
<g id="edge34" class="edge">
<title>25&#45;&gt;17</title>
<path fill="none" stroke="#000000" d="M310.9654,-172.5304C303.871,-175.1284 296.1918,-177.7955 289,-180 280.278,-182.6735 167.7746,-210.3042 107.9098,-224.9684"/>
<polygon fill="#000000" stroke="#000000" points="98.0789,-227.376 106.7215,-220.6264 102.9354,-226.1866 107.7919,-224.9973 107.7919,-224.9973 107.7919,-224.9973 102.9354,-226.1866 108.8623,-229.3681 98.0789,-227.376 98.0789,-227.376"/>
</g>
<!-- 26 -->
<g id="node27" class="node">
<title>26</title>
<polygon fill="none" stroke="#000000" points="449,-180 395,-180 395,-144 449,-144 449,-180"/>
<text text-anchor="middle" x="422" y="-158.3" font-family="Inconsolata, DejaVu Sans Mono, monospace" font-size="14.00" fill="#000000">m27</text>
</g>
<!-- 26&#45;&gt;1 -->
<g id="edge35" class="edge">
<title>26&#45;&gt;1</title>
<path fill="none" stroke="#000000" d="M405.1958,-180.1653C386.9829,-199.2948 356.5486,-229.6781 327,-252 309.9322,-264.8935 289.5649,-277.2294 272.4304,-286.8476"/>
<polygon fill="#000000" stroke="#000000" points="263.2854,-291.8977 269.8639,-283.1243 267.6623,-289.4807 272.0393,-287.0636 272.0393,-287.0636 272.0393,-287.0636 267.6623,-289.4807 274.2147,-291.0028 263.2854,-291.8977 263.2854,-291.8977"/>
</g>
<!-- 26&#45;&gt;8 -->
<g id="edge36" class="edge">
<title>26&#45;&gt;8</title>
<path fill="none" stroke="#000000" d="M420.4113,-180.2761C419.719,-200.6723 422.0222,-233.2631 441,-252 473.8796,-284.4623 610.0211,-298.5606 676.7686,-303.6148"/>
<polygon fill="#000000" stroke="#000000" points="686.8589,-304.3498 676.5583,-308.1113 681.8721,-303.9865 676.8853,-303.6232 676.8853,-303.6232 676.8853,-303.6232 681.8721,-303.9865 677.2122,-299.1351 686.8589,-304.3498 686.8589,-304.3498"/>
</g>
<!-- 26&#45;&gt;9 -->
<g id="edge37" class="edge">
<title>26&#45;&gt;9</title>
<path fill="none" stroke="#000000" d="M449.2464,-173.8893C476.9153,-185.963 519.9299,-204.7331 550.5254,-218.0838"/>
<polygon fill="#000000" stroke="#000000" points="559.9874,-222.2127 549.0222,-222.3376 555.4047,-220.2129 550.822,-218.2132 550.822,-218.2132 550.822,-218.2132 555.4047,-220.2129 552.6217,-214.0887 559.9874,-222.2127 559.9874,-222.2127"/>
</g>
<!-- 27 -->
<g id="node28" class="node">
<title>27</title>
<polygon fill="none" stroke="#000000" points="933,-324 879,-324 879,-288 933,-288 933,-324"/>
<text text-anchor="middle" x="906" y="-302.3" font-family="Inconsolata, DejaVu Sans Mono, monospace" font-size="14.00" fill="#000000">m28</text>
</g>
<!-- 28 -->
<g id="node29" class="node">
<title>28</title>
<polygon fill="none" stroke="#000000" points="1054,-252 1000,-252 1000,-216 1054,-216 1054,-252"/>
<text text-anchor="middle" x="1027" y="-230.3" font-family="Inconsolata, DejaVu Sans Mono, monospace" font-size="14.00" fill="#000000">m29</text>
</g>
<!-- 28&#45;&gt;27 -->
<g id="edge38" class="edge">
<title>28&#45;&gt;27</title>
<path fill="none" stroke="#000000" d="M999.8452,-250.1582C982.7198,-260.3485 960.4106,-273.6235 941.8407,-284.6733"/>
<polygon fill="#000000" stroke="#000000" points="933.0641,-289.8957 939.3567,-280.9149 937.361,-287.3389 941.6578,-284.7821 941.6578,-284.7821 941.6578,-284.7821 937.361,-287.3389 943.959,-288.6492 933.0641,-289.8957 933.0641,-289.8957"/>
</g>
<!-- 29 -->
<g id="node30" class="node">
<title>29</title>
<polygon fill="none" stroke="#000000" points="1098,-36 1044,-36 1044,0 1098,0 1098,-36"/>
<text text-anchor="middle" x="1071" y="-14.3" font-family="Inconsolata, DejaVu Sans Mono, monospace" font-size="14.00" fill="#000000">m30</text>
</g>
<!-- 30 -->
<g id="node31" class="node">
<title>30</title>
<polygon fill="none" stroke="#000000" points="686,-252 632,-252 632,-216 686,-216 686,-252"/>
<text text-anchor="middle" x="659" y="-230.3" font-family="Inconsolata, DejaVu Sans Mono, monospace" font-size="14.00" fill="#000000">m31</text>
</g>
<!-- 30&#45;&gt;1 -->
<g id="edge39" class="edge">
<title>30&#45;&gt;1</title>
<path fill="none" stroke="#000000" d="M631.8658,-248.7113C628.9266,-249.9578 625.9362,-251.088 623,-252 498.8313,-290.5655 343.6672,-301.6527 273.5172,-304.7898"/>
<polygon fill="#000000" stroke="#000000" points="263.4017,-305.2127 273.2049,-300.2988 268.3973,-305.0038 273.3929,-304.7949 273.3929,-304.7949 273.3929,-304.7949 268.3973,-305.0038 273.5809,-309.2909 263.4017,-305.2127 263.4017,-305.2127"/>
</g>
<!-- 30&#45;&gt;27 -->
<g id="edge40" class="edge">
<title>30&#45;&gt;27</title>
<path fill="none" stroke="#000000" d="M686.3771,-241.9804C730.9129,-254.9625 819.0933,-280.6669 869.1096,-295.2465"/>
<polygon fill="#000000" stroke="#000000" points="878.8768,-298.0936 868.017,-299.6153 874.0765,-296.6943 869.2763,-295.2951 869.2763,-295.2951 869.2763,-295.2951 874.0765,-296.6943 870.5357,-290.9749 878.8768,-298.0936 878.8768,-298.0936"/>
</g>
</g>
</svg>
