<?xml version="1.0" encoding="UTF-8" standalone="no"?>
<!DOCTYPE svg PUBLIC "-//W3C//DTD SVG 1.1//EN"
 "http://www.w3.org/Graphics/SVG/1.1/DTD/svg11.dtd">
<!-- Generated by graphviz version 2.40.1 (20161225.0304)
 -->
<!-- Title: packages Pages: 1 -->
<svg width="1016pt" height="332pt"
 viewBox="0.00 0.00 1015.88 332.00" xmlns="http://www.w3.org/2000/svg" xmlns:xlink="http://www.w3.org/1999/xlink">
<g id="graph0" class="graph" transform="scale(1 1) rotate(0) translate(4 328)">
<title>packages</title>
<polygon fill="#ffffff" stroke="transparent" points="-4,4 -4,-328 1011.8818,-328 1011.8818,4 -4,4"/>
<!-- 0 -->
<g id="node1" class="node">
<title>0</title>
<polygon fill="none" stroke="#000000" points="575.8818,-36 521.8818,-36 521.8818,0 575.8818,0 575.8818,-36"/>
<text text-anchor="middle" x="548.8818" y="-14.3" font-family="Inconsolata, DejaVu Sans Mono, monospace" font-size="14.00" fill="#000000">m01</text>
</g>
<!-- 1 -->
<g id="node2" class="node">
<title>1</title>
<polygon fill="none" stroke="#000000" points="223.8818,-324 169.8818,-324 169.8818,-288 223.8818,-288 223.8818,-324"/>
<text text-anchor="middle" x="196.8818" y="-302.3" font-family="Inconsolata, DejaVu Sans Mono, monospace" font-size="14.00" fill="#000000">m02</text>
</g>
<!-- 2 -->
<g id="node3" class="node">
<title>2</title>
<polygon fill="none" stroke="#000000" points="141.8818,-252 87.8818,-252 87.8818,-216 141.8818,-216 141.8818,-252"/>
<text text-anchor="middle" x="114.8818" y="-230.3" font-family="Inconsolata, DejaVu Sans Mono, monospace" font-size="14.00" fill="#000000">m03</text>
</g>
<!-- 2&#45;&gt;1 -->
<g id="edge1" class="edge">
<title>2&#45;&gt;1</title>
<path fill="none" stroke="#000000" d="M135.5738,-252.1686C145.5766,-260.9515 157.7368,-271.6288 168.5817,-281.1511"/>
<polygon fill="#000000" stroke="#000000" points="176.1963,-287.8372 165.7128,-284.6206 172.4391,-284.5381 168.6819,-281.2391 168.6819,-281.2391 168.6819,-281.2391 172.4391,-284.5381 171.651,-277.8576 176.1963,-287.8372 176.1963,-287.8372"/>
</g>
<!-- 3 -->
<g id="node4" class="node">
<title>3</title>
<polygon fill="none" stroke="#000000" points="137.8818,-180 83.8818,-180 83.8818,-144 137.8818,-144 137.8818,-180"/>
<text text-anchor="middle" x="110.8818" y="-158.3" font-family="Inconsolata, DejaVu Sans Mono, monospace" font-size="14.00" fill="#000000">m04</text>
</g>
<!-- 3&#45;&gt;2 -->
<g id="edge2" class="edge">
<title>3&#45;&gt;2</title>
<path fill="none" stroke="#000000" d="M111.8911,-180.1686C112.3189,-187.869 112.8276,-197.0257 113.3031,-205.5834"/>
<polygon fill="#000000" stroke="#000000" points="113.8588,-215.5867 108.8109,-205.8518 113.5814,-210.5944 113.304,-205.6021 113.304,-205.6021 113.304,-205.6021 113.5814,-210.5944 117.7971,-205.3525 113.8588,-215.5867 113.8588,-215.5867"/>
</g>
<!-- 4 -->
<g id="node5" class="node">
<title>4</title>
<polygon fill="none" stroke="#000000" points="69.8818,-252 15.8818,-252 15.8818,-216 69.8818,-216 69.8818,-252"/>
<text text-anchor="middle" x="42.8818" y="-230.3" font-family="Inconsolata, DejaVu Sans Mono, monospace" font-size="14.00" fill="#000000">m05</text>
</g>
<!-- 4&#45;&gt;1 -->
<g id="edge3" class="edge">
<title>4&#45;&gt;1</title>
<path fill="none" stroke="#000000" d="M69.9594,-247.6638C72.9627,-249.1421 75.9824,-250.6123 78.8818,-252 106.03,-264.9942 136.9783,-279.1321 160.3673,-289.6812"/>
<polygon fill="#000000" stroke="#000000" points="169.5746,-293.8248 158.6087,-293.8245 165.015,-291.7728 160.4555,-289.7209 160.4555,-289.7209 160.4555,-289.7209 165.015,-291.7728 162.3023,-285.6173 169.5746,-293.8248 169.5746,-293.8248"/>
</g>
<!-- 5 -->
<g id="node6" class="node">
<title>5</title>
<polygon fill="none" stroke="#000000" points="65.8818,-180 11.8818,-180 11.8818,-144 65.8818,-144 65.8818,-180"/>
<text text-anchor="middle" x="38.8818" y="-158.3" font-family="Inconsolata, DejaVu Sans Mono, monospace" font-size="14.00" fill="#000000">m06</text>
</g>
<!-- 5&#45;&gt;1 -->
<g id="edge4" class="edge">
<title>5&#45;&gt;1</title>
<path fill="none" stroke="#000000" d="M23.1024,-180.1081C8.2323,-199.4664 -9.511,-230.2991 6.8818,-252 25.2624,-276.3325 109.8062,-292.9189 159.7115,-300.7781"/>
<polygon fill="#000000" stroke="#000000" points="169.7987,-302.3224 159.2328,-305.2572 164.8563,-301.5657 159.9139,-300.809 159.9139,-300.809 159.9139,-300.809 164.8563,-301.5657 160.5949,-296.3609 169.7987,-302.3224 169.7987,-302.3224"/>
</g>
<!-- 5&#45;&gt;2 -->
<g id="edge5" class="edge">
<title>5&#45;&gt;2</title>
<path fill="none" stroke="#000000" d="M58.0598,-180.1686C67.2406,-188.8663 78.3824,-199.4217 88.3593,-208.8735"/>
<polygon fill="#000000" stroke="#000000" points="95.7099,-215.8372 85.3555,-212.2265 92.0801,-212.3984 88.4503,-208.9597 88.4503,-208.9597 88.4503,-208.9597 92.0801,-212.3984 91.5452,-205.6929 95.7099,-215.8372 95.7099,-215.8372"/>
</g>
<!-- 5&#45;&gt;4 -->
<g id="edge6" class="edge">
<title>5&#45;&gt;4</title>
<path fill="none" stroke="#000000" d="M39.8911,-180.1686C40.3189,-187.869 40.8276,-197.0257 41.3031,-205.5834"/>
<polygon fill="#000000" stroke="#000000" points="41.8588,-215.5867 36.8109,-205.8518 41.5814,-210.5944 41.304,-205.6021 41.304,-205.6021 41.304,-205.6021 41.5814,-210.5944 45.7971,-205.3525 41.8588,-215.5867 41.8588,-215.5867"/>
</g>
<!-- 6 -->
<g id="node7" class="node">
<title>6</title>
<polygon fill="none" stroke="#000000" points="719.8818,-36 665.8818,-36 665.8818,0 719.8818,0 719.8818,-36"/>
<text text-anchor="middle" x="692.8818" y="-14.3" font-family="Inconsolata, DejaVu Sans Mono, monospace" font-size="14.00" fill="#000000">m07</text>
</g>
<!-- 7 -->
<g id="node8" class="node">
<title>7</title>
<polygon fill="none" stroke="#000000" points="475.8818,-252 421.8818,-252 421.8818,-216 475.8818,-216 475.8818,-252"/>
<text text-anchor="middle" x="448.8818" y="-230.3" font-family="Inconsolata, DejaVu Sans Mono, monospace" font-size="14.00" fill="#000000">m08</text>
</g>
<!-- 8 -->
<g id="node9" class="node">
<title>8</title>
<polygon fill="none" stroke="#000000" points="640.8818,-324 586.8818,-324 586.8818,-288 640.8818,-288 640.8818,-324"/>
<text text-anchor="middle" x="613.8818" y="-302.3" font-family="Inconsolata, DejaVu Sans Mono, monospace" font-size="14.00" fill="#000000">m09</text>
</g>
<!-- 9 -->
<g id="node10" class="node">
<title>9</title>
<polygon fill="none" stroke="#000000" points="585.8818,-252 531.8818,-252 531.8818,-216 585.8818,-216 585.8818,-252"/>
<text text-anchor="middle" x="558.8818" y="-230.3" font-family="Inconsolata, DejaVu Sans Mono, monospace" font-size="14.00" fill="#000000">m10</text>
</g>
<!-- 9&#45;&gt;1 -->
<g id="edge7" class="edge">
<title>9&#45;&gt;1</title>
<path fill="none" stroke="#000000" d="M531.5504,-241.0163C517.622,-244.4981 500.3928,-248.6618 484.8818,-252 395.1765,-271.3056 288.9054,-290.2143 233.9466,-299.7012"/>
<polygon fill="#000000" stroke="#000000" points="223.978,-301.4156 233.0706,-295.2857 228.9057,-300.5681 233.8333,-299.7206 233.8333,-299.7206 233.8333,-299.7206 228.9057,-300.5681 234.5961,-304.1554 223.978,-301.4156 223.978,-301.4156"/>
</g>
<!-- 9&#45;&gt;8 -->
<g id="edge8" class="edge">
<title>9&#45;&gt;8</title>
<path fill="none" stroke="#000000" d="M572.7606,-252.1686C579.0953,-260.4614 586.7202,-270.443 593.6744,-279.5467"/>
<polygon fill="#000000" stroke="#000000" points="599.8161,-287.5867 590.1696,-282.3717 596.7809,-283.6134 593.7456,-279.64 593.7456,-279.64 593.7456,-279.64 596.7809,-283.6134 597.3217,-276.9083 599.8161,-287.5867 599.8161,-287.5867"/>
</g>
<!-- 10 -->
<g id="node11" class="node">
<title>10</title>
<polygon fill="none" stroke="#000000" points="551.8818,-180 497.8818,-180 497.8818,-144 551.8818,-144 551.8818,-180"/>
<text text-anchor="middle" x="524.8818" y="-158.3" font-family="Inconsolata, DejaVu Sans Mono, monospace" font-size="14.00" fill="#000000">m11</text>
</g>
<!-- 10&#45;&gt;7 -->
<g id="edge9" class="edge">
<title>10&#45;&gt;7</title>
<path fill="none" stroke="#000000" d="M505.7038,-180.1686C496.5229,-188.8663 485.3811,-199.4217 475.4042,-208.8735"/>
<polygon fill="#000000" stroke="#000000" points="468.0536,-215.8372 472.2183,-205.6929 471.6834,-212.3984 475.3132,-208.9597 475.3132,-208.9597 475.3132,-208.9597 471.6834,-212.3984 478.4081,-212.2265 468.0536,-215.8372 468.0536,-215.8372"/>
</g>
<!-- 10&#45;&gt;8 -->
<g id="edge10" class="edge">
<title>10&#45;&gt;8</title>
<path fill="none" stroke="#000000" d="M519.291,-180.2382C514.534,-199.4285 510.2764,-229.8622 522.8818,-252 534.5214,-272.4417 557.2838,-285.9441 577.1301,-294.3349"/>
<polygon fill="#000000" stroke="#000000" points="586.577,-298.0514 575.6238,-298.578 581.9242,-296.2209 577.2713,-294.3904 577.2713,-294.3904 577.2713,-294.3904 581.9242,-296.2209 578.9187,-290.2028 586.577,-298.0514 586.577,-298.0514"/>
</g>
<!-- 10&#45;&gt;9 -->
<g id="edge11" class="edge">
<title>10&#45;&gt;9</title>
<path fill="none" stroke="#000000" d="M533.4614,-180.1686C537.2176,-188.1229 541.7075,-197.631 545.8615,-206.4277"/>
<polygon fill="#000000" stroke="#000000" points="550.1866,-215.5867 541.8474,-208.4658 548.0516,-211.0655 545.9165,-206.5442 545.9165,-206.5442 545.9165,-206.5442 548.0516,-211.0655 549.9856,-204.6227 550.1866,-215.5867 550.1866,-215.5867"/>
</g>
<!-- 11 -->
<g id="node12" class="node">
<title>11</title>
<polygon fill="none" stroke="#000000" points="647.8818,-108 593.8818,-108 593.8818,-72 647.8818,-72 647.8818,-108"/>
<text text-anchor="middle" x="620.8818" y="-86.3" font-family="Inconsolata, DejaVu Sans Mono, monospace" font-size="14.00" fill="#000000">m12</text>
</g>
<!-- 11&#45;&gt;8 -->
<g id="edge12" class="edge">
<title>11&#45;&gt;8</title>
<path fill="none" stroke="#000000" d="M626.0009,-108.3273C628.6338,-118.7022 631.5614,-131.9716 632.8818,-144 638.0176,-190.7862 628.4752,-245.109 621.1496,-277.4597"/>
<polygon fill="#000000" stroke="#000000" points="618.7746,-287.5458 616.6865,-276.7806 619.9207,-282.6789 621.0667,-277.812 621.0667,-277.812 621.0667,-277.812 619.9207,-282.6789 625.4469,-278.8434 618.7746,-287.5458 618.7746,-287.5458"/>
</g>
<!-- 11&#45;&gt;10 -->
<g id="edge13" class="edge">
<title>11&#45;&gt;10</title>
<path fill="none" stroke="#000000" d="M596.6569,-108.1686C584.719,-117.1221 570.1562,-128.0442 557.2757,-137.7045"/>
<polygon fill="#000000" stroke="#000000" points="549.0989,-143.8372 554.3989,-134.2371 553.0989,-140.8372 557.0989,-137.8371 557.0989,-137.8371 557.0989,-137.8371 553.0989,-140.8372 559.7989,-141.4371 549.0989,-143.8372 549.0989,-143.8372"/>
</g>
<!-- 12 -->
<g id="node13" class="node">
<title>12</title>
<polygon fill="none" stroke="#000000" points="771.8818,-252 717.8818,-252 717.8818,-216 771.8818,-216 771.8818,-252"/>
<text text-anchor="middle" x="744.8818" y="-230.3" font-family="Inconsolata, DejaVu Sans Mono, monospace" font-size="14.00" fill="#000000">m13</text>
</g>
<!-- 12&#45;&gt;8 -->
<g id="edge14" class="edge">
<title>12&#45;&gt;8</title>
<path fill="none" stroke="#000000" d="M717.7385,-248.9184C698.066,-259.7308 671.2661,-274.4605 649.8182,-286.2487"/>
<polygon fill="#000000" stroke="#000000" points="640.9903,-291.1007 647.5864,-282.3404 645.3721,-288.6923 649.7539,-286.284 649.7539,-286.284 649.7539,-286.284 645.3721,-288.6923 651.9214,-290.2276 640.9903,-291.1007 640.9903,-291.1007"/>
</g>
<!-- 13 -->
<g id="node14" class="node">
<title>13</title>
<polygon fill="none" stroke="#000000" points="647.8818,-36 593.8818,-36 593.8818,0 647.8818,0 647.8818,-36"/>
<text text-anchor="middle" x="620.8818" y="-14.3" font-family="Inconsolata, DejaVu Sans Mono, monospace" font-size="14.00" fill="#000000">m14</text>
</g>
<!-- 13&#45;&gt;8 -->
<g id="edge15" class="edge">
<title>13&#45;&gt;8</title>
<path fill="none" stroke="#000000" d="M636.8723,-36.0831C644.5356,-45.9629 652.8984,-58.8437 656.8818,-72 668.4315,-110.1462 671.4966,-162.2731 643.8818,-252 641.0091,-261.334 636.3841,-270.8603 631.617,-279.261"/>
<polygon fill="#000000" stroke="#000000" points="626.4646,-287.8725 627.7374,-276.9807 629.0318,-283.5819 631.599,-279.2912 631.599,-279.2912 631.599,-279.2912 629.0318,-283.5819 635.4606,-281.6017 626.4646,-287.8725 626.4646,-287.8725"/>
</g>
<!-- 13&#45;&gt;10 -->
<g id="edge16" class="edge">
<title>13&#45;&gt;10</title>
<path fill="none" stroke="#000000" d="M608.7233,-36.2377C591.9885,-61.34 561.7496,-106.6983 542.5265,-135.5329"/>
<polygon fill="#000000" stroke="#000000" points="536.9415,-143.9104 538.7443,-133.0937 539.715,-139.7501 542.4886,-135.5899 542.4886,-135.5899 542.4886,-135.5899 539.715,-139.7501 546.2328,-138.086 536.9415,-143.9104 536.9415,-143.9104"/>
</g>
<!-- 13&#45;&gt;11 -->
<g id="edge17" class="edge">
<title>13&#45;&gt;11</title>
<path fill="none" stroke="#000000" d="M620.8818,-36.1686C620.8818,-43.869 620.8818,-53.0257 620.8818,-61.5834"/>
<polygon fill="#000000" stroke="#000000" points="620.8818,-71.5867 616.3819,-61.5867 620.8818,-66.5867 620.8819,-61.5867 620.8819,-61.5867 620.8819,-61.5867 620.8818,-66.5867 625.3819,-61.5868 620.8818,-71.5867 620.8818,-71.5867"/>
</g>
<!-- 14 -->
<g id="node15" class="node">
<title>14</title>
<polygon fill="none" stroke="#000000" points="881.8818,-252 827.8818,-252 827.8818,-216 881.8818,-216 881.8818,-252"/>
<text text-anchor="middle" x="854.8818" y="-230.3" font-family="Inconsolata, DejaVu Sans Mono, monospace" font-size="14.00" fill="#000000">m15</text>
</g>
<!-- 15 -->
<g id="node16" class="node">
<title>15</title>
<polygon fill="none" stroke="#000000" points="623.8818,-180 569.8818,-180 569.8818,-144 623.8818,-144 623.8818,-180"/>
<text text-anchor="middle" x="596.8818" y="-158.3" font-family="Inconsolata, DejaVu Sans Mono, monospace" font-size="14.00" fill="#000000">m16</text>
</g>
<!-- 15&#45;&gt;8 -->
<g id="edge18" class="edge">
<title>15&#45;&gt;8</title>
<path fill="none" stroke="#000000" d="M599.0348,-180.2377C601.9344,-204.799 607.1234,-248.7526 610.5344,-277.6459"/>
<polygon fill="#000000" stroke="#000000" points="611.7462,-287.9104 606.1047,-278.507 611.1599,-282.9449 610.5737,-277.9793 610.5737,-277.9793 610.5737,-277.9793 611.1599,-282.9449 615.0427,-277.4517 611.7462,-287.9104 611.7462,-287.9104"/>
</g>
<!-- 15&#45;&gt;9 -->
<g id="edge19" class="edge">
<title>15&#45;&gt;9</title>
<path fill="none" stroke="#000000" d="M587.2928,-180.1686C583.05,-188.2075 577.9697,-197.8334 573.2858,-206.7082"/>
<polygon fill="#000000" stroke="#000000" points="568.5999,-215.5867 569.2878,-204.6424 570.9337,-211.1648 573.2675,-206.7429 573.2675,-206.7429 573.2675,-206.7429 570.9337,-211.1648 577.2473,-208.8433 568.5999,-215.5867 568.5999,-215.5867"/>
</g>
<!-- 16 -->
<g id="node17" class="node">
<title>16</title>
<polygon fill="none" stroke="#000000" points="826.8818,-180 772.8818,-180 772.8818,-144 826.8818,-144 826.8818,-180"/>
<text text-anchor="middle" x="799.8818" y="-158.3" font-family="Inconsolata, DejaVu Sans Mono, monospace" font-size="14.00" fill="#000000">m17</text>
</g>
<!-- 16&#45;&gt;8 -->
<g id="edge20" class="edge">
<title>16&#45;&gt;8</title>
<path fill="none" stroke="#000000" d="M801.0652,-180.2452C801.3431,-200.3061 798.6202,-232.3001 780.8818,-252 763.4212,-271.3912 694.5761,-289.006 650.9164,-298.542"/>
<polygon fill="#000000" stroke="#000000" points="640.941,-300.6764 649.7781,-294.1836 645.8303,-299.6302 650.7197,-298.584 650.7197,-298.584 650.7197,-298.584 645.8303,-299.6302 651.6613,-302.9844 640.941,-300.6764 640.941,-300.6764"/>
</g>
<!-- 16&#45;&gt;9 -->
<g id="edge21" class="edge">
<title>16&#45;&gt;9</title>
<path fill="none" stroke="#000000" d="M772.7045,-170.1194C729.3773,-183.0636 644.5746,-208.3988 595.7943,-222.9722"/>
<polygon fill="#000000" stroke="#000000" points="585.9597,-225.9103 594.2531,-218.736 590.7505,-224.479 595.5413,-223.0477 595.5413,-223.0477 595.5413,-223.0477 590.7505,-224.479 596.8295,-227.3594 585.9597,-225.9103 585.9597,-225.9103"/>
</g>
<!-- 16&#45;&gt;14 -->
<g id="edge22" class="edge">
<title>16&#45;&gt;14</title>
<path fill="none" stroke="#000000" d="M813.7606,-180.1686C820.0953,-188.4614 827.7202,-198.443 834.6744,-207.5467"/>
<polygon fill="#000000" stroke="#000000" points="840.8161,-215.5867 831.1696,-210.3717 837.7809,-211.6134 834.7456,-207.64 834.7456,-207.64 834.7456,-207.64 837.7809,-211.6134 838.3217,-204.9083 840.8161,-215.5867 840.8161,-215.5867"/>
</g>
<!-- 17 -->
<g id="node18" class="node">
<title>17</title>
<polygon fill="none" stroke="#000000" points="251.8818,-252 197.8818,-252 197.8818,-216 251.8818,-216 251.8818,-252"/>
<text text-anchor="middle" x="224.8818" y="-230.3" font-family="Inconsolata, DejaVu Sans Mono, monospace" font-size="14.00" fill="#000000">m18</text>
</g>
<!-- 17&#45;&gt;1 -->
<g id="edge23" class="edge">
<title>17&#45;&gt;1</title>
<path fill="none" stroke="#000000" d="M217.8162,-252.1686C214.7558,-260.0383 211.1039,-269.4288 207.7136,-278.1467"/>
<polygon fill="#000000" stroke="#000000" points="204.0425,-287.5867 203.473,-276.6356 205.8548,-282.9267 207.667,-278.2667 207.667,-278.2667 207.667,-278.2667 205.8548,-282.9267 211.861,-279.8977 204.0425,-287.5867 204.0425,-287.5867"/>
</g>
<!-- 18 -->
<g id="node19" class="node">
<title>18</title>
<polygon fill="none" stroke="#000000" points="209.8818,-108 155.8818,-108 155.8818,-72 209.8818,-72 209.8818,-108"/>
<text text-anchor="middle" x="182.8818" y="-86.3" font-family="Inconsolata, DejaVu Sans Mono, monospace" font-size="14.00" fill="#000000">m19</text>
</g>
<!-- 19 -->
<g id="node20" class="node">
<title>19</title>
<polygon fill="none" stroke="#000000" points="209.8818,-180 155.8818,-180 155.8818,-144 209.8818,-144 209.8818,-180"/>
<text text-anchor="middle" x="182.8818" y="-158.3" font-family="Inconsolata, DejaVu Sans Mono, monospace" font-size="14.00" fill="#000000">m20</text>
</g>
<!-- 18&#45;&gt;19 -->
<g id="edge24" class="edge">
<title>18&#45;&gt;19</title>
<path fill="none" stroke="#000000" d="M182.8818,-108.1686C182.8818,-115.869 182.8818,-125.0257 182.8818,-133.5834"/>
<polygon fill="#000000" stroke="#000000" points="182.8818,-143.5867 178.3819,-133.5867 182.8818,-138.5867 182.8819,-133.5867 182.8819,-133.5867 182.8819,-133.5867 182.8818,-138.5867 187.3819,-133.5868 182.8818,-143.5867 182.8818,-143.5867"/>
</g>
<!-- 19&#45;&gt;1 -->
<g id="edge25" class="edge">
<title>19&#45;&gt;1</title>
<path fill="none" stroke="#000000" d="M183.6698,-180.3089C184.5554,-198.5207 186.227,-227.243 188.8818,-252 189.777,-260.3485 191.0107,-269.3859 192.2414,-277.6356"/>
<polygon fill="#000000" stroke="#000000" points="193.773,-287.5527 187.7994,-278.3567 193.0098,-282.6113 192.2466,-277.6699 192.2466,-277.6699 192.2466,-277.6699 193.0098,-282.6113 196.6939,-276.983 193.773,-287.5527 193.773,-287.5527"/>
</g>
<!-- 19&#45;&gt;2 -->
<g id="edge26" class="edge">
<title>19&#45;&gt;2</title>
<path fill="none" stroke="#000000" d="M165.7225,-180.1686C157.7306,-188.6306 148.078,-198.8511 139.3401,-208.1029"/>
<polygon fill="#000000" stroke="#000000" points="132.2721,-215.5867 135.8668,-205.2268 135.7052,-211.9517 139.1383,-208.3166 139.1383,-208.3166 139.1383,-208.3166 135.7052,-211.9517 142.4099,-211.4064 132.2721,-215.5867 132.2721,-215.5867"/>
</g>
<!-- 19&#45;&gt;17 -->
<g id="edge27" class="edge">
<title>19&#45;&gt;17</title>
<path fill="none" stroke="#000000" d="M193.4801,-180.1686C198.1695,-188.2075 203.7846,-197.8334 208.9616,-206.7082"/>
<polygon fill="#000000" stroke="#000000" points="214.1407,-215.5867 205.2149,-209.2164 211.6213,-211.2678 209.1019,-206.9489 209.1019,-206.9489 209.1019,-206.9489 211.6213,-211.2678 212.989,-204.6815 214.1407,-215.5867 214.1407,-215.5867"/>
</g>
<!-- 20 -->
<g id="node21" class="node">
<title>20</title>
<polygon fill="none" stroke="#000000" points="863.8818,-108 809.8818,-108 809.8818,-72 863.8818,-72 863.8818,-108"/>
<text text-anchor="middle" x="836.8818" y="-86.3" font-family="Inconsolata, DejaVu Sans Mono, monospace" font-size="14.00" fill="#000000">m21</text>
</g>
<!-- 21 -->
<g id="node22" class="node">
<title>21</title>
<polygon fill="none" stroke="#000000" points="791.8818,-36 737.8818,-36 737.8818,0 791.8818,0 791.8818,-36"/>
<text text-anchor="middle" x="764.8818" y="-14.3" font-family="Inconsolata, DejaVu Sans Mono, monospace" font-size="14.00" fill="#000000">m22</text>
</g>
<!-- 21&#45;&gt;20 -->
<g id="edge28" class="edge">
<title>21&#45;&gt;20</title>
<path fill="none" stroke="#000000" d="M783.0504,-36.1686C791.597,-44.7152 801.9375,-55.0557 811.2619,-64.3802"/>
<polygon fill="#000000" stroke="#000000" points="818.4685,-71.5867 808.2154,-67.6976 814.933,-68.0512 811.3974,-64.5156 811.3974,-64.5156 811.3974,-64.5156 814.933,-68.0512 814.5794,-61.3336 818.4685,-71.5867 818.4685,-71.5867"/>
</g>
<!-- 22 -->
<g id="node23" class="node">
<title>22</title>
<polygon fill="none" stroke="#000000" points="863.8818,-36 809.8818,-36 809.8818,0 863.8818,0 863.8818,-36"/>
<text text-anchor="middle" x="836.8818" y="-14.3" font-family="Inconsolata, DejaVu Sans Mono, monospace" font-size="14.00" fill="#000000">m23</text>
</g>
<!-- 22&#45;&gt;20 -->
<g id="edge29" class="edge">
<title>22&#45;&gt;20</title>
<path fill="none" stroke="#000000" d="M836.8818,-36.1686C836.8818,-43.869 836.8818,-53.0257 836.8818,-61.5834"/>
<polygon fill="#000000" stroke="#000000" points="836.8818,-71.5867 832.3819,-61.5867 836.8818,-66.5867 836.8819,-61.5867 836.8819,-61.5867 836.8819,-61.5867 836.8818,-66.5867 841.3819,-61.5868 836.8818,-71.5867 836.8818,-71.5867"/>
</g>
<!-- 23 -->
<g id="node24" class="node">
<title>23</title>
<polygon fill="none" stroke="#000000" points="935.8818,-36 881.8818,-36 881.8818,0 935.8818,0 935.8818,-36"/>
<text text-anchor="middle" x="908.8818" y="-14.3" font-family="Inconsolata, DejaVu Sans Mono, monospace" font-size="14.00" fill="#000000">m24</text>
</g>
<!-- 23&#45;&gt;20 -->
<g id="edge30" class="edge">
<title>23&#45;&gt;20</title>
<path fill="none" stroke="#000000" d="M890.7131,-36.1686C882.1665,-44.7152 871.8261,-55.0557 862.5016,-64.3802"/>
<polygon fill="#000000" stroke="#000000" points="855.295,-71.5867 859.1841,-61.3336 858.8306,-68.0512 862.3661,-64.5156 862.3661,-64.5156 862.3661,-64.5156 858.8306,-68.0512 865.5481,-67.6976 855.295,-71.5867 855.295,-71.5867"/>
</g>
<!-- 24 -->
<g id="node25" class="node">
<title>24</title>
<polygon fill="none" stroke="#000000" points="281.8818,-180 227.8818,-180 227.8818,-144 281.8818,-144 281.8818,-180"/>
<text text-anchor="middle" x="254.8818" y="-158.3" font-family="Inconsolata, DejaVu Sans Mono, monospace" font-size="14.00" fill="#000000">m25</text>
</g>
<!-- 24&#45;&gt;1 -->
<g id="edge31" class="edge">
<title>24&#45;&gt;1</title>
<path fill="none" stroke="#000000" d="M261.0385,-180.1864C266.3295,-199.064 271.5717,-228.9936 260.8818,-252 254.7199,-265.2613 243.5198,-276.4381 232.1919,-285.1212"/>
<polygon fill="#000000" stroke="#000000" points="223.9911,-290.9972 229.4989,-281.5148 228.0555,-288.085 232.1199,-285.1728 232.1199,-285.1728 232.1199,-285.1728 228.0555,-288.085 234.7408,-288.8307 223.9911,-290.9972 223.9911,-290.9972"/>
</g>
<!-- 24&#45;&gt;17 -->
<g id="edge32" class="edge">
<title>24&#45;&gt;17</title>
<path fill="none" stroke="#000000" d="M247.3115,-180.1686C244.0325,-188.0383 240.1198,-197.4288 236.4873,-206.1467"/>
<polygon fill="#000000" stroke="#000000" points="232.554,-215.5867 232.2463,-204.6252 234.4771,-210.9713 236.4002,-206.356 236.4002,-206.356 236.4002,-206.356 234.4771,-210.9713 240.554,-208.0868 232.554,-215.5867 232.554,-215.5867"/>
</g>
<!-- 25 -->
<g id="node26" class="node">
<title>25</title>
<polygon fill="none" stroke="#000000" points="353.8818,-180 299.8818,-180 299.8818,-144 353.8818,-144 353.8818,-180"/>
<text text-anchor="middle" x="326.8818" y="-158.3" font-family="Inconsolata, DejaVu Sans Mono, monospace" font-size="14.00" fill="#000000">m26</text>
</g>
<!-- 25&#45;&gt;8 -->
<g id="edge33" class="edge">
<title>25&#45;&gt;8</title>
<path fill="none" stroke="#000000" d="M335.5231,-180.1794C346.2796,-200.8019 366.6124,-233.9079 393.8818,-252 423.6685,-271.7622 522.0839,-290.687 576.6429,-299.9989"/>
<polygon fill="#000000" stroke="#000000" points="586.6151,-301.6772 576.0069,-304.455 581.6844,-300.8473 576.7538,-300.0175 576.7538,-300.0175 576.7538,-300.0175 581.6844,-300.8473 577.5006,-295.5799 586.6151,-301.6772 586.6151,-301.6772"/>
</g>
<!-- 25&#45;&gt;17 -->
<g id="edge34" class="edge">
<title>25&#45;&gt;17</title>
<path fill="none" stroke="#000000" d="M301.1429,-180.1686C288.338,-189.2073 272.6909,-200.2524 258.9098,-209.9802"/>
<polygon fill="#000000" stroke="#000000" points="250.6124,-215.8372 256.1871,-206.3939 254.6973,-212.9537 258.7821,-210.0703 258.7821,-210.0703 258.7821,-210.0703 254.6973,-212.9537 261.3772,-213.7467 250.6124,-215.8372 250.6124,-215.8372"/>
</g>
<!-- 26 -->
<g id="node27" class="node">
<title>26</title>
<polygon fill="none" stroke="#000000" points="425.8818,-180 371.8818,-180 371.8818,-144 425.8818,-144 425.8818,-180"/>
<text text-anchor="middle" x="398.8818" y="-158.3" font-family="Inconsolata, DejaVu Sans Mono, monospace" font-size="14.00" fill="#000000">m27</text>
</g>
<!-- 26&#45;&gt;1 -->
<g id="edge35" class="edge">
<title>26&#45;&gt;1</title>
<path fill="none" stroke="#000000" d="M375.7392,-180.0188C351.7979,-198.502 313.1768,-227.8809 278.8818,-252 263.9869,-262.4754 247.2439,-273.6114 232.7891,-283.0327"/>
<polygon fill="#000000" stroke="#000000" points="224.1215,-288.6559 230.0615,-279.4381 228.3161,-285.9345 232.5107,-283.2132 232.5107,-283.2132 232.5107,-283.2132 228.3161,-285.9345 234.9599,-286.9883 224.1215,-288.6559 224.1215,-288.6559"/>
</g>
<!-- 26&#45;&gt;8 -->
<g id="edge36" class="edge">
<title>26&#45;&gt;8</title>
<path fill="none" stroke="#000000" d="M396.3559,-180.3055C394.6688,-200.4205 395.3509,-232.4629 412.8818,-252 434.5552,-276.1538 524.7716,-292.9977 576.6728,-300.8983"/>
<polygon fill="#000000" stroke="#000000" points="586.8193,-302.4033 576.2672,-305.3873 581.8734,-301.6697 576.9275,-300.936 576.9275,-300.936 576.9275,-300.936 581.8734,-301.6697 577.5878,-296.4847 586.8193,-302.4033 586.8193,-302.4033"/>
</g>
<!-- 26&#45;&gt;9 -->
<g id="edge37" class="edge">
<title>26&#45;&gt;9</title>
<path fill="none" stroke="#000000" d="M426.0236,-174.2138C452.5375,-186.1451 493.0724,-204.3858 522.396,-217.5814"/>
<polygon fill="#000000" stroke="#000000" points="531.8743,-221.8466 520.9084,-221.8466 527.3147,-219.7948 522.7551,-217.7429 522.7551,-217.7429 522.7551,-217.7429 527.3147,-219.7948 524.6017,-213.6393 531.8743,-221.8466 531.8743,-221.8466"/>
</g>
<!-- 27 -->
<g id="node28" class="node">
<title>27</title>
<polygon fill="none" stroke="#000000" points="1007.8818,-108 953.8818,-108 953.8818,-72 1007.8818,-72 1007.8818,-108"/>
<text text-anchor="middle" x="980.8818" y="-86.3" font-family="Inconsolata, DejaVu Sans Mono, monospace" font-size="14.00" fill="#000000">m28</text>
</g>
<!-- 28 -->
<g id="node29" class="node">
<title>28</title>
<polygon fill="none" stroke="#000000" points="1007.8818,-36 953.8818,-36 953.8818,0 1007.8818,0 1007.8818,-36"/>
<text text-anchor="middle" x="980.8818" y="-14.3" font-family="Inconsolata, DejaVu Sans Mono, monospace" font-size="14.00" fill="#000000">m29</text>
</g>
<!-- 28&#45;&gt;27 -->
<g id="edge38" class="edge">
<title>28&#45;&gt;27</title>
<path fill="none" stroke="#000000" d="M980.8818,-36.1686C980.8818,-43.869 980.8818,-53.0257 980.8818,-61.5834"/>
<polygon fill="#000000" stroke="#000000" points="980.8818,-71.5867 976.3819,-61.5867 980.8818,-66.5867 980.8819,-61.5867 980.8819,-61.5867 980.8819,-61.5867 980.8818,-66.5867 985.3819,-61.5868 980.8818,-71.5867 980.8818,-71.5867"/>
</g>
</g>
</svg>
