<?xml version="1.0" encoding="UTF-8" standalone="no"?>
<!DOCTYPE svg PUBLIC "-//W3C//DTD SVG 1.1//EN"
 "http://www.w3.org/Graphics/SVG/1.1/DTD/svg11.dtd">
<!-- Generated by graphviz version 2.40.1 (20161225.0304)
 -->
<!-- Title: packages Pages: 1 -->
<svg width="1348pt" height="332pt"
 viewBox="0.00 0.00 1348.00 332.00" xmlns="http://www.w3.org/2000/svg" xmlns:xlink="http://www.w3.org/1999/xlink">
<g id="graph0" class="graph" transform="scale(1 1) rotate(0) translate(4 328)">
<title>packages</title>
<polygon fill="#ffffff" stroke="transparent" points="-4,4 -4,-328 1344,-328 1344,4 -4,4"/>
<!-- 0 -->
<g id="node1" class="node">
<title>0</title>
<polygon fill="none" stroke="#000000" points="771,-36 717,-36 717,0 771,0 771,-36"/>
<text text-anchor="middle" x="744" y="-14.3" font-family="Inconsolata, DejaVu Sans Mono, monospace" font-size="14.00" fill="#000000">m01</text>
</g>
<!-- 1 -->
<g id="node2" class="node">
<title>1</title>
<polygon fill="none" stroke="#000000" points="257,-324 203,-324 203,-288 257,-288 257,-324"/>
<text text-anchor="middle" x="230" y="-302.3" font-family="Inconsolata, DejaVu Sans Mono, monospace" font-size="14.00" fill="#000000">m02</text>
</g>
<!-- 2 -->
<g id="node3" class="node">
<title>2</title>
<polygon fill="none" stroke="#000000" points="164,-252 110,-252 110,-216 164,-216 164,-252"/>
<text text-anchor="middle" x="137" y="-230.3" font-family="Inconsolata, DejaVu Sans Mono, monospace" font-size="14.00" fill="#000000">m03</text>
</g>
<!-- 2&#45;&gt;1 -->
<g id="edge1" class="edge">
<title>2&#45;&gt;1</title>
<path fill="none" stroke="#000000" d="M160.4678,-252.1686C172.0327,-261.1221 186.1404,-272.0442 198.6183,-281.7045"/>
<polygon fill="#000000" stroke="#000000" points="206.5397,-287.8372 195.8776,-285.2737 202.5861,-284.7763 198.6324,-281.7154 198.6324,-281.7154 198.6324,-281.7154 202.5861,-284.7763 201.3872,-278.1571 206.5397,-287.8372 206.5397,-287.8372"/>
</g>
<!-- 3 -->
<g id="node4" class="node">
<title>3</title>
<polygon fill="none" stroke="#000000" points="156,-180 102,-180 102,-144 156,-144 156,-180"/>
<text text-anchor="middle" x="129" y="-158.3" font-family="Inconsolata, DejaVu Sans Mono, monospace" font-size="14.00" fill="#000000">m04</text>
</g>
<!-- 3&#45;&gt;2 -->
<g id="edge2" class="edge">
<title>3&#45;&gt;2</title>
<path fill="none" stroke="#000000" d="M131.0187,-180.1686C131.8743,-187.869 132.8917,-197.0257 133.8426,-205.5834"/>
<polygon fill="#000000" stroke="#000000" points="134.9541,-215.5867 129.3772,-206.1449 134.4019,-210.6173 133.8497,-205.6479 133.8497,-205.6479 133.8497,-205.6479 134.4019,-210.6173 138.3222,-205.1509 134.9541,-215.5867 134.9541,-215.5867"/>
</g>
<!-- 4 -->
<g id="node5" class="node">
<title>4</title>
<polygon fill="none" stroke="#000000" points="54,-252 0,-252 0,-216 54,-216 54,-252"/>
<text text-anchor="middle" x="27" y="-230.3" font-family="Inconsolata, DejaVu Sans Mono, monospace" font-size="14.00" fill="#000000">m05</text>
</g>
<!-- 4&#45;&gt;1 -->
<g id="edge3" class="edge">
<title>4&#45;&gt;1</title>
<path fill="none" stroke="#000000" d="M54.2017,-246.359C58.7785,-248.3182 63.5024,-250.2673 68,-252 110.3699,-268.3227 160.0263,-284.4426 193.0855,-294.76"/>
<polygon fill="#000000" stroke="#000000" points="202.786,-297.7695 191.9017,-299.1043 198.0105,-296.288 193.2351,-294.8064 193.2351,-294.8064 193.2351,-294.8064 198.0105,-296.288 194.5685,-290.5085 202.786,-297.7695 202.786,-297.7695"/>
</g>
<!-- 5 -->
<g id="node6" class="node">
<title>5</title>
<polygon fill="none" stroke="#000000" points="84,-180 30,-180 30,-144 84,-144 84,-180"/>
<text text-anchor="middle" x="57" y="-158.3" font-family="Inconsolata, DejaVu Sans Mono, monospace" font-size="14.00" fill="#000000">m06</text>
</g>
<!-- 5&#45;&gt;1 -->
<g id="edge4" class="edge">
<title>5&#45;&gt;1</title>
<path fill="none" stroke="#000000" d="M61.7039,-180.2037C67.7328,-200.2276 79.9988,-232.1884 101,-252 126.7169,-276.2602 164.9157,-290.3931 193.0758,-298.0703"/>
<polygon fill="#000000" stroke="#000000" points="202.9547,-300.6135 192.1485,-302.4782 198.1125,-299.3669 193.2704,-298.1203 193.2704,-298.1203 193.2704,-298.1203 198.1125,-299.3669 194.3923,-293.7624 202.9547,-300.6135 202.9547,-300.6135"/>
</g>
<!-- 5&#45;&gt;2 -->
<g id="edge5" class="edge">
<title>5&#45;&gt;2</title>
<path fill="none" stroke="#000000" d="M77.1874,-180.1686C86.8514,-188.8663 98.5796,-199.4217 109.0816,-208.8735"/>
<polygon fill="#000000" stroke="#000000" points="116.8191,-215.8372 106.3758,-212.4923 113.1026,-212.4923 109.3861,-209.1475 109.3861,-209.1475 109.3861,-209.1475 113.1026,-212.4923 112.3965,-205.8027 116.8191,-215.8372 116.8191,-215.8372"/>
</g>
<!-- 5&#45;&gt;4 -->
<g id="edge6" class="edge">
<title>5&#45;&gt;4</title>
<path fill="none" stroke="#000000" d="M49.4297,-180.1686C46.1507,-188.0383 42.238,-197.4288 38.6055,-206.1467"/>
<polygon fill="#000000" stroke="#000000" points="34.6722,-215.5867 34.3646,-204.6252 36.5953,-210.9713 38.5184,-206.356 38.5184,-206.356 38.5184,-206.356 36.5953,-210.9713 42.6723,-208.0868 34.6722,-215.5867 34.6722,-215.5867"/>
</g>
<!-- 6 -->
<g id="node7" class="node">
<title>6</title>
<polygon fill="none" stroke="#000000" points="983,-36 929,-36 929,0 983,0 983,-36"/>
<text text-anchor="middle" x="956" y="-14.3" font-family="Inconsolata, DejaVu Sans Mono, monospace" font-size="14.00" fill="#000000">m07</text>
</g>
<!-- 7 -->
<g id="node8" class="node">
<title>7</title>
<polygon fill="none" stroke="#000000" points="790,-252 736,-252 736,-216 790,-216 790,-252"/>
<text text-anchor="middle" x="763" y="-230.3" font-family="Inconsolata, DejaVu Sans Mono, monospace" font-size="14.00" fill="#000000">m08</text>
</g>
<!-- 8 -->
<g id="node9" class="node">
<title>8</title>
<polygon fill="none" stroke="#000000" points="707,-324 653,-324 653,-288 707,-288 707,-324"/>
<text text-anchor="middle" x="680" y="-302.3" font-family="Inconsolata, DejaVu Sans Mono, monospace" font-size="14.00" fill="#000000">m09</text>
</g>
<!-- 9 -->
<g id="node10" class="node">
<title>9</title>
<polygon fill="none" stroke="#000000" points="680,-252 626,-252 626,-216 680,-216 680,-252"/>
<text text-anchor="middle" x="653" y="-230.3" font-family="Inconsolata, DejaVu Sans Mono, monospace" font-size="14.00" fill="#000000">m10</text>
</g>
<!-- 9&#45;&gt;1 -->
<g id="edge7" class="edge">
<title>9&#45;&gt;1</title>
<path fill="none" stroke="#000000" d="M625.8658,-248.7113C622.9266,-249.9578 619.9362,-251.088 617,-252 492.8313,-290.5655 337.6672,-301.6527 267.5172,-304.7898"/>
<polygon fill="#000000" stroke="#000000" points="257.4017,-305.2127 267.2049,-300.2988 262.3973,-305.0038 267.3929,-304.7949 267.3929,-304.7949 267.3929,-304.7949 262.3973,-305.0038 267.5809,-309.2909 257.4017,-305.2127 257.4017,-305.2127"/>
</g>
<!-- 9&#45;&gt;8 -->
<g id="edge8" class="edge">
<title>9&#45;&gt;8</title>
<path fill="none" stroke="#000000" d="M659.8132,-252.1686C662.7644,-260.0383 666.2858,-269.4288 669.555,-278.1467"/>
<polygon fill="#000000" stroke="#000000" points="673.095,-287.5867 665.3702,-279.8035 671.3394,-282.9051 669.5837,-278.2234 669.5837,-278.2234 669.5837,-278.2234 671.3394,-282.9051 673.7972,-276.6434 673.095,-287.5867 673.095,-287.5867"/>
</g>
<!-- 10 -->
<g id="node11" class="node">
<title>10</title>
<polygon fill="none" stroke="#000000" points="760,-180 706,-180 706,-144 760,-144 760,-180"/>
<text text-anchor="middle" x="733" y="-158.3" font-family="Inconsolata, DejaVu Sans Mono, monospace" font-size="14.00" fill="#000000">m11</text>
</g>
<!-- 10&#45;&gt;7 -->
<g id="edge9" class="edge">
<title>10&#45;&gt;7</title>
<path fill="none" stroke="#000000" d="M740.5703,-180.1686C743.8493,-188.0383 747.762,-197.4288 751.3945,-206.1467"/>
<polygon fill="#000000" stroke="#000000" points="755.3278,-215.5867 747.3277,-208.0868 753.4047,-210.9713 751.4816,-206.356 751.4816,-206.356 751.4816,-206.356 753.4047,-210.9713 755.6354,-204.6252 755.3278,-215.5867 755.3278,-215.5867"/>
</g>
<!-- 10&#45;&gt;8 -->
<g id="edge10" class="edge">
<title>10&#45;&gt;8</title>
<path fill="none" stroke="#000000" d="M726.2875,-180.2377C717.168,-205.0154 700.7846,-249.5286 690.1561,-278.4061"/>
<polygon fill="#000000" stroke="#000000" points="686.658,-287.9104 685.889,-276.9715 688.385,-283.2181 690.1121,-278.5258 690.1121,-278.5258 690.1121,-278.5258 688.385,-283.2181 694.3351,-280.0802 686.658,-287.9104 686.658,-287.9104"/>
</g>
<!-- 10&#45;&gt;9 -->
<g id="edge11" class="edge">
<title>10&#45;&gt;9</title>
<path fill="none" stroke="#000000" d="M712.8126,-180.1686C703.1486,-188.8663 691.4204,-199.4217 680.9184,-208.8735"/>
<polygon fill="#000000" stroke="#000000" points="673.1809,-215.8372 677.6035,-205.8027 676.8974,-212.4923 680.6139,-209.1475 680.6139,-209.1475 680.6139,-209.1475 676.8974,-212.4923 683.6242,-212.4923 673.1809,-215.8372 673.1809,-215.8372"/>
</g>
<!-- 11 -->
<g id="node12" class="node">
<title>11</title>
<polygon fill="none" stroke="#000000" points="843,-108 789,-108 789,-72 843,-72 843,-108"/>
<text text-anchor="middle" x="816" y="-86.3" font-family="Inconsolata, DejaVu Sans Mono, monospace" font-size="14.00" fill="#000000">m12</text>
</g>
<!-- 11&#45;&gt;8 -->
<g id="edge12" class="edge">
<title>11&#45;&gt;8</title>
<path fill="none" stroke="#000000" d="M826.888,-108.2867C832.2929,-118.4291 838.2445,-131.4895 841,-144 851.5367,-191.8391 852.3332,-216.1043 819,-252 792.3308,-280.7195 748.5952,-294.356 717.304,-300.7051"/>
<polygon fill="#000000" stroke="#000000" points="707.2119,-302.5901 716.2156,-296.3304 712.1269,-301.672 717.0419,-300.7539 717.0419,-300.7539 717.0419,-300.7539 712.1269,-301.672 717.8682,-305.1774 707.2119,-302.5901 707.2119,-302.5901"/>
</g>
<!-- 11&#45;&gt;10 -->
<g id="edge13" class="edge">
<title>11&#45;&gt;10</title>
<path fill="none" stroke="#000000" d="M795.0556,-108.1686C784.9309,-116.9515 772.6223,-127.6288 761.6452,-137.1511"/>
<polygon fill="#000000" stroke="#000000" points="753.9377,-143.8372 758.5429,-133.8851 757.7147,-140.5608 761.4916,-137.2844 761.4916,-137.2844 761.4916,-137.2844 757.7147,-140.5608 764.4404,-140.6836 753.9377,-143.8372 753.9377,-143.8372"/>
</g>
<!-- 12 -->
<g id="node13" class="node">
<title>12</title>
<polygon fill="none" stroke="#000000" points="498,-252 444,-252 444,-216 498,-216 498,-252"/>
<text text-anchor="middle" x="471" y="-230.3" font-family="Inconsolata, DejaVu Sans Mono, monospace" font-size="14.00" fill="#000000">m13</text>
</g>
<!-- 12&#45;&gt;8 -->
<g id="edge14" class="edge">
<title>12&#45;&gt;8</title>
<path fill="none" stroke="#000000" d="M498.1858,-246.4007C502.7645,-248.3548 507.4932,-250.2916 512,-252 556.5854,-268.9015 609.0534,-285.2112 643.3403,-295.4017"/>
<polygon fill="#000000" stroke="#000000" points="652.9373,-298.2353 642.0723,-299.7194 648.142,-296.8194 643.3466,-295.4036 643.3466,-295.4036 643.3466,-295.4036 648.142,-296.8194 644.6209,-291.0877 652.9373,-298.2353 652.9373,-298.2353"/>
</g>
<!-- 13 -->
<g id="node14" class="node">
<title>13</title>
<polygon fill="none" stroke="#000000" points="843,-36 789,-36 789,0 843,0 843,-36"/>
<text text-anchor="middle" x="816" y="-14.3" font-family="Inconsolata, DejaVu Sans Mono, monospace" font-size="14.00" fill="#000000">m14</text>
</g>
<!-- 13&#45;&gt;8 -->
<g id="edge15" class="edge">
<title>13&#45;&gt;8</title>
<path fill="none" stroke="#000000" d="M843.2771,-26.065C907.8219,-45.7706 1066.6393,-98.1115 1095,-144 1120.2351,-184.8312 1126.6758,-215.9355 1095,-252 1070.2177,-280.2159 814.7839,-298.0777 717.418,-303.9061"/>
<polygon fill="#000000" stroke="#000000" points="707.155,-304.5107 716.8729,-299.4303 712.1463,-304.2166 717.1376,-303.9225 717.1376,-303.9225 717.1376,-303.9225 712.1463,-304.2166 717.4023,-308.4147 707.155,-304.5107 707.155,-304.5107"/>
</g>
<!-- 13&#45;&gt;10 -->
<g id="edge16" class="edge">
<title>13&#45;&gt;10</title>
<path fill="none" stroke="#000000" d="M803.1743,-36.1824C796.0677,-46.512 787.2337,-59.7842 780,-72 767.8749,-92.4761 755.4677,-116.3846 746.4478,-134.4111"/>
<polygon fill="#000000" stroke="#000000" points="741.8085,-143.7615 742.222,-132.8034 744.0308,-139.2825 746.2531,-134.8035 746.2531,-134.8035 746.2531,-134.8035 744.0308,-139.2825 750.2842,-136.8035 741.8085,-143.7615 741.8085,-143.7615"/>
</g>
<!-- 13&#45;&gt;11 -->
<g id="edge17" class="edge">
<title>13&#45;&gt;11</title>
<path fill="none" stroke="#000000" d="M816,-36.1686C816,-43.869 816,-53.0257 816,-61.5834"/>
<polygon fill="#000000" stroke="#000000" points="816,-71.5867 811.5001,-61.5867 816,-66.5867 816.0001,-61.5867 816.0001,-61.5867 816.0001,-61.5867 816,-66.5867 820.5001,-61.5868 816,-71.5867 816,-71.5867"/>
</g>
<!-- 14 -->
<g id="node15" class="node">
<title>14</title>
<polygon fill="none" stroke="#000000" points="608,-252 554,-252 554,-216 608,-216 608,-252"/>
<text text-anchor="middle" x="581" y="-230.3" font-family="Inconsolata, DejaVu Sans Mono, monospace" font-size="14.00" fill="#000000">m15</text>
</g>
<!-- 15 -->
<g id="node16" class="node">
<title>15</title>
<polygon fill="none" stroke="#000000" points="832,-180 778,-180 778,-144 832,-144 832,-180"/>
<text text-anchor="middle" x="805" y="-158.3" font-family="Inconsolata, DejaVu Sans Mono, monospace" font-size="14.00" fill="#000000">m16</text>
</g>
<!-- 15&#45;&gt;8 -->
<g id="edge18" class="edge">
<title>15&#45;&gt;8</title>
<path fill="none" stroke="#000000" d="M808.8973,-180.3358C811.9715,-199.8887 813.6213,-230.8866 799,-252 780.2739,-279.0407 744.592,-292.7728 717.1651,-299.5978"/>
<polygon fill="#000000" stroke="#000000" points="707.1102,-301.8886 715.8607,-295.2795 711.9853,-300.7779 716.8603,-299.6671 716.8603,-299.6671 716.8603,-299.6671 711.9853,-300.7779 717.86,-304.0547 707.1102,-301.8886 707.1102,-301.8886"/>
</g>
<!-- 15&#45;&gt;9 -->
<g id="edge19" class="edge">
<title>15&#45;&gt;9</title>
<path fill="none" stroke="#000000" d="M777.9132,-175.6448C774.9117,-177.1266 771.8948,-178.6028 769,-180 742.5673,-192.7575 712.5199,-206.7306 689.6299,-217.2661"/>
<polygon fill="#000000" stroke="#000000" points="680.2895,-221.5573 687.4977,-213.2934 684.833,-219.4699 689.3764,-217.3825 689.3764,-217.3825 689.3764,-217.3825 684.833,-219.4699 691.2551,-221.4716 680.2895,-221.5573 680.2895,-221.5573"/>
</g>
<!-- 16 -->
<g id="node17" class="node">
<title>16</title>
<polygon fill="none" stroke="#000000" points="608,-180 554,-180 554,-144 608,-144 608,-180"/>
<text text-anchor="middle" x="581" y="-158.3" font-family="Inconsolata, DejaVu Sans Mono, monospace" font-size="14.00" fill="#000000">m17</text>
</g>
<!-- 16&#45;&gt;8 -->
<g id="edge20" class="edge">
<title>16&#45;&gt;8</title>
<path fill="none" stroke="#000000" d="M553.8865,-167.1854C502.3783,-178.2111 398.6289,-206.7394 435,-252 460.5978,-283.8542 580.3009,-298.0235 642.4005,-303.3193"/>
<polygon fill="#000000" stroke="#000000" points="652.5704,-304.151 642.2369,-307.8208 647.587,-303.7434 642.6037,-303.3358 642.6037,-303.3358 642.6037,-303.3358 647.587,-303.7434 642.9705,-298.8508 652.5704,-304.151 652.5704,-304.151"/>
</g>
<!-- 16&#45;&gt;9 -->
<g id="edge21" class="edge">
<title>16&#45;&gt;9</title>
<path fill="none" stroke="#000000" d="M599.1686,-180.1686C607.7152,-188.7152 618.0557,-199.0557 627.3802,-208.3802"/>
<polygon fill="#000000" stroke="#000000" points="634.5867,-215.5867 624.3336,-211.6976 631.0512,-212.0512 627.5156,-208.5156 627.5156,-208.5156 627.5156,-208.5156 631.0512,-212.0512 630.6976,-205.3336 634.5867,-215.5867 634.5867,-215.5867"/>
</g>
<!-- 16&#45;&gt;14 -->
<g id="edge22" class="edge">
<title>16&#45;&gt;14</title>
<path fill="none" stroke="#000000" d="M581,-180.1686C581,-187.869 581,-197.0257 581,-205.5834"/>
<polygon fill="#000000" stroke="#000000" points="581,-215.5867 576.5001,-205.5867 581,-210.5867 581.0001,-205.5867 581.0001,-205.5867 581.0001,-205.5867 581,-210.5867 585.5001,-205.5868 581,-215.5867 581,-215.5867"/>
</g>
<!-- 17 -->
<g id="node18" class="node">
<title>17</title>
<polygon fill="none" stroke="#000000" points="312,-252 258,-252 258,-216 312,-216 312,-252"/>
<text text-anchor="middle" x="285" y="-230.3" font-family="Inconsolata, DejaVu Sans Mono, monospace" font-size="14.00" fill="#000000">m18</text>
</g>
<!-- 17&#45;&gt;1 -->
<g id="edge23" class="edge">
<title>17&#45;&gt;1</title>
<path fill="none" stroke="#000000" d="M271.1212,-252.1686C264.7864,-260.4614 257.1616,-270.443 250.2074,-279.5467"/>
<polygon fill="#000000" stroke="#000000" points="244.0657,-287.5867 246.5601,-276.9083 247.1009,-283.6134 250.1361,-279.64 250.1361,-279.64 250.1361,-279.64 247.1009,-283.6134 253.7122,-282.3717 244.0657,-287.5867 244.0657,-287.5867"/>
</g>
<!-- 18 -->
<g id="node19" class="node">
<title>18</title>
<polygon fill="none" stroke="#000000" points="228,-108 174,-108 174,-72 228,-72 228,-108"/>
<text text-anchor="middle" x="201" y="-86.3" font-family="Inconsolata, DejaVu Sans Mono, monospace" font-size="14.00" fill="#000000">m19</text>
</g>
<!-- 19 -->
<g id="node20" class="node">
<title>19</title>
<polygon fill="none" stroke="#000000" points="228,-180 174,-180 174,-144 228,-144 228,-180"/>
<text text-anchor="middle" x="201" y="-158.3" font-family="Inconsolata, DejaVu Sans Mono, monospace" font-size="14.00" fill="#000000">m20</text>
</g>
<!-- 18&#45;&gt;19 -->
<g id="edge24" class="edge">
<title>18&#45;&gt;19</title>
<path fill="none" stroke="#000000" d="M201,-108.1686C201,-115.869 201,-125.0257 201,-133.5834"/>
<polygon fill="#000000" stroke="#000000" points="201,-143.5867 196.5001,-133.5867 201,-138.5867 201.0001,-133.5867 201.0001,-133.5867 201.0001,-133.5867 201,-138.5867 205.5001,-133.5868 201,-143.5867 201,-143.5867"/>
</g>
<!-- 19&#45;&gt;1 -->
<g id="edge25" class="edge">
<title>19&#45;&gt;1</title>
<path fill="none" stroke="#000000" d="M203.5233,-180.0178C206.189,-198.2504 210.7312,-227.2089 216,-252 217.7837,-260.3928 220.0095,-269.4439 222.1578,-277.6925"/>
<polygon fill="#000000" stroke="#000000" points="224.7985,-287.6015 217.8752,-279.0975 223.5109,-282.7701 222.2234,-277.9387 222.2234,-277.9387 222.2234,-277.9387 223.5109,-282.7701 226.5717,-276.7799 224.7985,-287.6015 224.7985,-287.6015"/>
</g>
<!-- 19&#45;&gt;2 -->
<g id="edge26" class="edge">
<title>19&#45;&gt;2</title>
<path fill="none" stroke="#000000" d="M184.8501,-180.1686C177.3283,-188.6306 168.2435,-198.8511 160.0196,-208.1029"/>
<polygon fill="#000000" stroke="#000000" points="153.3673,-215.5867 156.6477,-205.123 156.6892,-211.8497 160.011,-208.1126 160.011,-208.1126 160.011,-208.1126 156.6892,-211.8497 163.3744,-211.1023 153.3673,-215.5867 153.3673,-215.5867"/>
</g>
<!-- 19&#45;&gt;17 -->
<g id="edge27" class="edge">
<title>19&#45;&gt;17</title>
<path fill="none" stroke="#000000" d="M222.1967,-180.1686C232.4434,-188.9515 244.9003,-199.6288 256.0097,-209.1511"/>
<polygon fill="#000000" stroke="#000000" points="263.81,-215.8372 253.2889,-212.7459 260.0137,-212.5832 256.2174,-209.3292 256.2174,-209.3292 256.2174,-209.3292 260.0137,-212.5832 259.146,-205.9126 263.81,-215.8372 263.81,-215.8372"/>
</g>
<!-- 20 -->
<g id="node21" class="node">
<title>20</title>
<polygon fill="none" stroke="#000000" points="1196,-108 1142,-108 1142,-72 1196,-72 1196,-108"/>
<text text-anchor="middle" x="1169" y="-86.3" font-family="Inconsolata, DejaVu Sans Mono, monospace" font-size="14.00" fill="#000000">m21</text>
</g>
<!-- 21 -->
<g id="node22" class="node">
<title>21</title>
<polygon fill="none" stroke="#000000" points="1124,-36 1070,-36 1070,0 1124,0 1124,-36"/>
<text text-anchor="middle" x="1097" y="-14.3" font-family="Inconsolata, DejaVu Sans Mono, monospace" font-size="14.00" fill="#000000">m22</text>
</g>
<!-- 21&#45;&gt;20 -->
<g id="edge28" class="edge">
<title>21&#45;&gt;20</title>
<path fill="none" stroke="#000000" d="M1115.1686,-36.1686C1123.7152,-44.7152 1134.0557,-55.0557 1143.3802,-64.3802"/>
<polygon fill="#000000" stroke="#000000" points="1150.5867,-71.5867 1140.3336,-67.6976 1147.0512,-68.0512 1143.5156,-64.5156 1143.5156,-64.5156 1143.5156,-64.5156 1147.0512,-68.0512 1146.6976,-61.3336 1150.5867,-71.5867 1150.5867,-71.5867"/>
</g>
<!-- 22 -->
<g id="node23" class="node">
<title>22</title>
<polygon fill="none" stroke="#000000" points="1196,-36 1142,-36 1142,0 1196,0 1196,-36"/>
<text text-anchor="middle" x="1169" y="-14.3" font-family="Inconsolata, DejaVu Sans Mono, monospace" font-size="14.00" fill="#000000">m23</text>
</g>
<!-- 22&#45;&gt;20 -->
<g id="edge29" class="edge">
<title>22&#45;&gt;20</title>
<path fill="none" stroke="#000000" d="M1169,-36.1686C1169,-43.869 1169,-53.0257 1169,-61.5834"/>
<polygon fill="#000000" stroke="#000000" points="1169,-71.5867 1164.5001,-61.5867 1169,-66.5867 1169.0001,-61.5867 1169.0001,-61.5867 1169.0001,-61.5867 1169,-66.5867 1173.5001,-61.5868 1169,-71.5867 1169,-71.5867"/>
</g>
<!-- 23 -->
<g id="node24" class="node">
<title>23</title>
<polygon fill="none" stroke="#000000" points="1268,-36 1214,-36 1214,0 1268,0 1268,-36"/>
<text text-anchor="middle" x="1241" y="-14.3" font-family="Inconsolata, DejaVu Sans Mono, monospace" font-size="14.00" fill="#000000">m24</text>
</g>
<!-- 23&#45;&gt;20 -->
<g id="edge30" class="edge">
<title>23&#45;&gt;20</title>
<path fill="none" stroke="#000000" d="M1222.8314,-36.1686C1214.2848,-44.7152 1203.9443,-55.0557 1194.6198,-64.3802"/>
<polygon fill="#000000" stroke="#000000" points="1187.4133,-71.5867 1191.3024,-61.3336 1190.9488,-68.0512 1194.4844,-64.5156 1194.4844,-64.5156 1194.4844,-64.5156 1190.9488,-68.0512 1197.6664,-67.6976 1187.4133,-71.5867 1187.4133,-71.5867"/>
</g>
<!-- 24 -->
<g id="node25" class="node">
<title>24</title>
<polygon fill="none" stroke="#000000" points="300,-180 246,-180 246,-144 300,-144 300,-180"/>
<text text-anchor="middle" x="273" y="-158.3" font-family="Inconsolata, DejaVu Sans Mono, monospace" font-size="14.00" fill="#000000">m25</text>
</g>
<!-- 24&#45;&gt;1 -->
<g id="edge31" class="edge">
<title>24&#45;&gt;1</title>
<path fill="none" stroke="#000000" d="M263.7993,-180.1188C258.8582,-190.4284 252.982,-203.702 249,-216 242.4511,-236.2254 237.5754,-259.7535 234.4035,-277.6799"/>
<polygon fill="#000000" stroke="#000000" points="232.6912,-287.7786 229.9264,-277.167 233.5271,-282.849 234.363,-277.9193 234.363,-277.9193 234.363,-277.9193 233.5271,-282.849 238.7997,-278.6717 232.6912,-287.7786 232.6912,-287.7786"/>
</g>
<!-- 24&#45;&gt;17 -->
<g id="edge32" class="edge">
<title>24&#45;&gt;17</title>
<path fill="none" stroke="#000000" d="M276.0281,-180.1686C277.3115,-187.869 278.8376,-197.0257 280.2639,-205.5834"/>
<polygon fill="#000000" stroke="#000000" points="281.9311,-215.5867 275.8483,-206.4626 281.1091,-210.6548 280.287,-205.7228 280.287,-205.7228 280.287,-205.7228 281.1091,-210.6548 284.7258,-204.983 281.9311,-215.5867 281.9311,-215.5867"/>
</g>
<!-- 25 -->
<g id="node26" class="node">
<title>25</title>
<polygon fill="none" stroke="#000000" points="372,-180 318,-180 318,-144 372,-144 372,-180"/>
<text text-anchor="middle" x="345" y="-158.3" font-family="Inconsolata, DejaVu Sans Mono, monospace" font-size="14.00" fill="#000000">m26</text>
</g>
<!-- 25&#45;&gt;8 -->
<g id="edge33" class="edge">
<title>25&#45;&gt;8</title>
<path fill="none" stroke="#000000" d="M372.2799,-176.2944C375.1906,-177.6222 378.1346,-178.8854 381,-180 435.279,-201.1137 456.4094,-187.1453 507,-216 527.2085,-227.5261 525.4066,-239.4567 545,-252 575.7684,-271.6974 614.8947,-286.3822 643.095,-295.4266"/>
<polygon fill="#000000" stroke="#000000" points="652.9545,-298.5024 642.0681,-299.8201 648.1814,-297.0133 643.4082,-295.5242 643.4082,-295.5242 643.4082,-295.5242 648.1814,-297.0133 644.7484,-291.2284 652.9545,-298.5024 652.9545,-298.5024"/>
</g>
<!-- 25&#45;&gt;17 -->
<g id="edge34" class="edge">
<title>25&#45;&gt;17</title>
<path fill="none" stroke="#000000" d="M329.8595,-180.1686C322.8783,-188.546 314.4609,-198.6469 306.8124,-207.8251"/>
<polygon fill="#000000" stroke="#000000" points="300.3444,-215.5867 303.2893,-205.0237 303.5453,-211.7456 306.7463,-207.9045 306.7463,-207.9045 306.7463,-207.9045 303.5453,-211.7456 310.2033,-210.7853 300.3444,-215.5867 300.3444,-215.5867"/>
</g>
<!-- 26 -->
<g id="node27" class="node">
<title>26</title>
<polygon fill="none" stroke="#000000" points="444,-180 390,-180 390,-144 444,-144 444,-180"/>
<text text-anchor="middle" x="417" y="-158.3" font-family="Inconsolata, DejaVu Sans Mono, monospace" font-size="14.00" fill="#000000">m27</text>
</g>
<!-- 26&#45;&gt;1 -->
<g id="edge35" class="edge">
<title>26&#45;&gt;1</title>
<path fill="none" stroke="#000000" d="M399.984,-180.1469C381.5503,-199.261 350.7715,-229.6317 321,-252 303.8985,-264.8489 283.5282,-277.1808 266.4004,-286.8078"/>
<polygon fill="#000000" stroke="#000000" points="257.2599,-291.864 263.8322,-283.0858 261.6352,-289.4438 266.0104,-287.0235 266.0104,-287.0235 266.0104,-287.0235 261.6352,-289.4438 268.1886,-290.9612 257.2599,-291.864 257.2599,-291.864"/>
</g>
<!-- 26&#45;&gt;8 -->
<g id="edge36" class="edge">
<title>26&#45;&gt;8</title>
<path fill="none" stroke="#000000" d="M412.6246,-180.2991C408.9914,-200.4085 406.8404,-232.4457 424,-252 452.38,-284.3406 578.9597,-298.3883 642.8505,-303.5063"/>
<polygon fill="#000000" stroke="#000000" points="652.9103,-304.2796 642.5947,-307.9998 647.925,-303.8963 642.9397,-303.513 642.9397,-303.513 642.9397,-303.513 647.925,-303.8963 643.2846,-299.0263 652.9103,-304.2796 652.9103,-304.2796"/>
</g>
<!-- 26&#45;&gt;9 -->
<g id="edge37" class="edge">
<title>26&#45;&gt;9</title>
<path fill="none" stroke="#000000" d="M444.067,-167.5018C481.1979,-175.4329 549.9894,-191.4996 616.0188,-215.9883"/>
<polygon fill="#000000" stroke="#000000" points="625.7367,-219.6625 614.7915,-220.3351 621.0598,-217.8942 616.383,-216.1259 616.383,-216.1259 616.383,-216.1259 621.0598,-217.8942 617.9744,-211.9167 625.7367,-219.6625 625.7367,-219.6625"/>
</g>
<!-- 27 -->
<g id="node28" class="node">
<title>27</title>
<polygon fill="none" stroke="#000000" points="976,-252 922,-252 922,-216 976,-216 976,-252"/>
<text text-anchor="middle" x="949" y="-230.3" font-family="Inconsolata, DejaVu Sans Mono, monospace" font-size="14.00" fill="#000000">m28</text>
</g>
<!-- 28 -->
<g id="node29" class="node">
<title>28</title>
<polygon fill="none" stroke="#000000" points="1014,-180 960,-180 960,-144 1014,-144 1014,-180"/>
<text text-anchor="middle" x="987" y="-158.3" font-family="Inconsolata, DejaVu Sans Mono, monospace" font-size="14.00" fill="#000000">m29</text>
</g>
<!-- 28&#45;&gt;27 -->
<g id="edge38" class="edge">
<title>28&#45;&gt;27</title>
<path fill="none" stroke="#000000" d="M977.411,-180.1686C973.1683,-188.2075 968.0879,-197.8334 963.404,-206.7082"/>
<polygon fill="#000000" stroke="#000000" points="958.7181,-215.5867 959.406,-204.6424 961.0519,-211.1648 963.3858,-206.7429 963.3858,-206.7429 963.3858,-206.7429 961.0519,-211.1648 967.3655,-208.8433 958.7181,-215.5867 958.7181,-215.5867"/>
</g>
<!-- 29 -->
<g id="node30" class="node">
<title>29</title>
<polygon fill="none" stroke="#000000" points="1340,-36 1286,-36 1286,0 1340,0 1340,-36"/>
<text text-anchor="middle" x="1313" y="-14.3" font-family="Inconsolata, DejaVu Sans Mono, monospace" font-size="14.00" fill="#000000">m30</text>
</g>
<!-- 30 -->
<g id="node31" class="node">
<title>30</title>
<polygon fill="none" stroke="#000000" points="942,-180 888,-180 888,-144 942,-144 942,-180"/>
<text text-anchor="middle" x="915" y="-158.3" font-family="Inconsolata, DejaVu Sans Mono, monospace" font-size="14.00" fill="#000000">m31</text>
</g>
<!-- 30&#45;&gt;1 -->
<g id="edge39" class="edge">
<title>30&#45;&gt;1</title>
<path fill="none" stroke="#000000" d="M898.1615,-180.2425C877.2203,-201.5878 839.2854,-236.0386 799,-252 701.5882,-290.5955 377.6666,-302.2616 267.2473,-305.1632"/>
<polygon fill="#000000" stroke="#000000" points="257.2428,-305.4173 267.1253,-300.6648 262.2412,-305.2903 267.2396,-305.1633 267.2396,-305.1633 267.2396,-305.1633 262.2412,-305.2903 267.3539,-309.6619 257.2428,-305.4173 257.2428,-305.4173"/>
</g>
<!-- 30&#45;&gt;27 -->
<g id="edge40" class="edge">
<title>30&#45;&gt;27</title>
<path fill="none" stroke="#000000" d="M923.5796,-180.1686C927.3358,-188.1229 931.8257,-197.631 935.9798,-206.4277"/>
<polygon fill="#000000" stroke="#000000" points="940.3048,-215.5867 931.9656,-208.4658 938.1698,-211.0655 936.0347,-206.5442 936.0347,-206.5442 936.0347,-206.5442 938.1698,-211.0655 940.1038,-204.6227 940.3048,-215.5867 940.3048,-215.5867"/>
</g>
<!-- 31 -->
<g id="node32" class="node">
<title>31</title>
<polygon fill="none" stroke="#000000" points="942,-108 888,-108 888,-72 942,-72 942,-108"/>
<text text-anchor="middle" x="915" y="-86.3" font-family="Inconsolata, DejaVu Sans Mono, monospace" font-size="14.00" fill="#000000">m32</text>
</g>
<!-- 31&#45;&gt;30 -->
<g id="edge41" class="edge">
<title>31&#45;&gt;30</title>
<path fill="none" stroke="#000000" d="M915,-108.1686C915,-115.869 915,-125.0257 915,-133.5834"/>
<polygon fill="#000000" stroke="#000000" points="915,-143.5867 910.5001,-133.5867 915,-138.5867 915.0001,-133.5867 915.0001,-133.5867 915.0001,-133.5867 915,-138.5867 919.5001,-133.5868 915,-143.5867 915,-143.5867"/>
</g>
<!-- 32 -->
<g id="node33" class="node">
<title>32</title>
<polygon fill="none" stroke="#000000" points="1086,-252 1032,-252 1032,-216 1086,-216 1086,-252"/>
<text text-anchor="middle" x="1059" y="-230.3" font-family="Inconsolata, DejaVu Sans Mono, monospace" font-size="14.00" fill="#000000">m33</text>
</g>
<!-- 33 -->
<g id="node34" class="node">
<title>33</title>
<polygon fill="none" stroke="#000000" points="1086,-180 1032,-180 1032,-144 1086,-144 1086,-180"/>
<text text-anchor="middle" x="1059" y="-158.3" font-family="Inconsolata, DejaVu Sans Mono, monospace" font-size="14.00" fill="#000000">m34</text>
</g>
<!-- 33&#45;&gt;8 -->
<g id="edge42" class="edge">
<title>33&#45;&gt;8</title>
<path fill="none" stroke="#000000" d="M1046.3394,-180.2423C1029.5818,-203.8467 1000.3684,-243.0172 985,-252 940.068,-278.2626 788.7149,-295.6822 717.5597,-302.6171"/>
<polygon fill="#000000" stroke="#000000" points="707.2608,-303.6019 716.787,-298.1703 712.2381,-303.1259 717.2154,-302.6499 717.2154,-302.6499 717.2154,-302.6499 712.2381,-303.1259 717.6438,-307.1295 707.2608,-303.6019 707.2608,-303.6019"/>
</g>
<!-- 33&#45;&gt;9 -->
<g id="edge43" class="edge">
<title>33&#45;&gt;9</title>
<path fill="none" stroke="#000000" d="M1031.8821,-176.7646C1028.9397,-178.0007 1025.9441,-179.1139 1023,-180 896.0977,-218.1925 857.3882,-192.2978 727,-216 714.9264,-218.1948 701.8806,-221.1641 690.1546,-224.0578"/>
<polygon fill="#000000" stroke="#000000" points="680.2472,-226.56 688.8409,-219.7482 685.095,-225.3356 689.9428,-224.1112 689.9428,-224.1112 689.9428,-224.1112 685.095,-225.3356 691.0448,-228.4742 680.2472,-226.56 680.2472,-226.56"/>
</g>
<!-- 33&#45;&gt;27 -->
<g id="edge44" class="edge">
<title>33&#45;&gt;27</title>
<path fill="none" stroke="#000000" d="M1031.809,-179.7978C1017.6622,-189.0575 1000.1843,-200.4975 984.937,-210.4776"/>
<polygon fill="#000000" stroke="#000000" points="976.2594,-216.1575 982.162,-206.9157 980.443,-213.4191 984.6265,-210.6808 984.6265,-210.6808 984.6265,-210.6808 980.443,-213.4191 987.091,-214.446 976.2594,-216.1575 976.2594,-216.1575"/>
</g>
<!-- 33&#45;&gt;32 -->
<g id="edge45" class="edge">
<title>33&#45;&gt;32</title>
<path fill="none" stroke="#000000" d="M1059,-180.1686C1059,-187.869 1059,-197.0257 1059,-205.5834"/>
<polygon fill="#000000" stroke="#000000" points="1059,-215.5867 1054.5001,-205.5867 1059,-210.5867 1059.0001,-205.5867 1059.0001,-205.5867 1059.0001,-205.5867 1059,-210.5867 1063.5001,-205.5868 1059,-215.5867 1059,-215.5867"/>
</g>
</g>
</svg>
